<mxfile host="Electron" agent="Mozilla/5.0 (Windows NT 10.0; Win64; x64) AppleWebKit/537.36 (KHTML, like Gecko) draw.io/25.0.2 Chrome/128.0.6613.186 Electron/32.2.5 Safari/537.36" version="25.0.2">
  <diagram id="C5RBs43oDa-KdzZeNtuy" name="Page-1">
    <mxGraphModel dx="1687" dy="984" grid="1" gridSize="10" guides="1" tooltips="1" connect="1" arrows="1" fold="1" page="1" pageScale="1" pageWidth="827" pageHeight="1169" math="0" shadow="0">
      <root>
        <mxCell id="WIyWlLk6GJQsqaUBKTNV-0" />
        <mxCell id="WIyWlLk6GJQsqaUBKTNV-1" parent="WIyWlLk6GJQsqaUBKTNV-0" />
        <mxCell id="HoljnPIvToN0olSSxeQU-0" value="&lt;p style=&quot;margin:0px;margin-top:4px;text-align:center;&quot;&gt;&lt;b&gt;TrainHallCommandHandler&lt;/b&gt;&lt;/p&gt;&lt;hr size=&quot;1&quot; style=&quot;border-style:solid;&quot;&gt;&lt;p style=&quot;margin:0px;margin-left:4px;&quot;&gt;- undo_stack: List&lt;span style=&quot;background-color: initial;&quot;&gt;&amp;lt;TrainHallCommand&amp;gt;&lt;/span&gt;&lt;/p&gt;&lt;p style=&quot;margin:0px;margin-left:4px;&quot;&gt;- redo_stack: List&lt;span style=&quot;background-color: initial;&quot;&gt;&amp;lt;TrainHallCommand&amp;gt;&lt;/span&gt;&lt;/p&gt;&lt;hr size=&quot;1&quot; style=&quot;border-style:solid;&quot;&gt;&lt;p style=&quot;margin:0px;margin-left:4px;&quot;&gt;+ execute(command, **kwargs): Any&lt;/p&gt;&lt;p style=&quot;margin:0px;margin-left:4px;&quot;&gt;+ undo(): void&lt;/p&gt;&lt;p style=&quot;margin:0px;margin-left:4px;&quot;&gt;+ redo(): void&lt;/p&gt;" style="verticalAlign=top;align=left;overflow=fill;html=1;whiteSpace=wrap;" parent="WIyWlLk6GJQsqaUBKTNV-1" vertex="1">
          <mxGeometry x="300" y="1450" width="240" height="120" as="geometry" />
        </mxCell>
        <mxCell id="HoljnPIvToN0olSSxeQU-1" value="&lt;p style=&quot;margin:0px;margin-top:4px;text-align:center;&quot;&gt;&lt;b&gt;StationCommandHandler&lt;/b&gt;&lt;/p&gt;&lt;hr size=&quot;1&quot; style=&quot;border-style:solid;&quot;&gt;&lt;p style=&quot;margin:0px;margin-left:4px;&quot;&gt;- undo_stack: List&amp;lt;StationCommand&amp;gt;&lt;/p&gt;&lt;p style=&quot;margin:0px;margin-left:4px;&quot;&gt;- redo_stack: List&amp;lt;StationCommand&amp;gt;&lt;/p&gt;&lt;hr size=&quot;1&quot; style=&quot;border-style:solid;&quot;&gt;&lt;p style=&quot;margin:0px;margin-left:4px;&quot;&gt;+ execute(command, **kwargs): Any&lt;/p&gt;&lt;p style=&quot;margin:0px;margin-left:4px;&quot;&gt;+ undo(): void&lt;/p&gt;&lt;p style=&quot;margin:0px;margin-left:4px;&quot;&gt;+ redo(): void&lt;/p&gt;" style="verticalAlign=top;align=left;overflow=fill;html=1;whiteSpace=wrap;" parent="WIyWlLk6GJQsqaUBKTNV-1" vertex="1">
          <mxGeometry x="318" y="240" width="210" height="120" as="geometry" />
        </mxCell>
        <mxCell id="HoljnPIvToN0olSSxeQU-2" value="&lt;p style=&quot;margin:0px;margin-top:4px;text-align:center;&quot;&gt;&lt;b&gt;RailwayCompanyCommandHandler&lt;/b&gt;&lt;/p&gt;&lt;hr size=&quot;1&quot; style=&quot;border-style:solid;&quot;&gt;&lt;p style=&quot;margin:0px;margin-left:4px;&quot;&gt;- undo_stack: List&amp;lt;RailwaycompanyCommand&amp;gt;&lt;/p&gt;&lt;p style=&quot;margin:0px;margin-left:4px;&quot;&gt;- redo_stack: List&amp;lt;&lt;span style=&quot;background-color: initial;&quot;&gt;RailwaycompanyCommand&lt;/span&gt;&lt;span style=&quot;background-color: initial;&quot;&gt;&amp;gt;&lt;/span&gt;&lt;/p&gt;&lt;hr size=&quot;1&quot; style=&quot;border-style:solid;&quot;&gt;&lt;p style=&quot;margin:0px;margin-left:4px;&quot;&gt;+ execute(command, **kwargs): Any&lt;/p&gt;&lt;p style=&quot;margin:0px;margin-left:4px;&quot;&gt;+ undo(): void&lt;/p&gt;&lt;p style=&quot;margin:0px;margin-left:4px;&quot;&gt;+ redo(): void&lt;/p&gt;" style="verticalAlign=top;align=left;overflow=fill;html=1;whiteSpace=wrap;" parent="WIyWlLk6GJQsqaUBKTNV-1" vertex="1">
          <mxGeometry x="1130" y="237.5" width="280" height="125" as="geometry" />
        </mxCell>
        <mxCell id="HoljnPIvToN0olSSxeQU-3" value="&lt;p style=&quot;margin:0px;margin-top:4px;text-align:center;&quot;&gt;&lt;b&gt;TrainCommandHandler&lt;/b&gt;&lt;/p&gt;&lt;hr size=&quot;1&quot; style=&quot;border-style:solid;&quot;&gt;&lt;p style=&quot;margin:0px;margin-left:4px;&quot;&gt;- undo_stack: List&lt;span style=&quot;background-color: initial;&quot;&gt;&amp;lt;TrainCommand&amp;gt;&lt;/span&gt;&lt;/p&gt;&lt;p style=&quot;margin:0px;margin-left:4px;&quot;&gt;- redo_stack: List&lt;span style=&quot;background-color: initial;&quot;&gt;&amp;lt;TrainCommand&amp;gt;&lt;/span&gt;&lt;/p&gt;&lt;hr size=&quot;1&quot; style=&quot;border-style:solid;&quot;&gt;&lt;p style=&quot;margin:0px;margin-left:4px;&quot;&gt;+ execute(command, **kwargs): Any&lt;/p&gt;&lt;p style=&quot;margin:0px;margin-left:4px;&quot;&gt;+ undo(): void&lt;/p&gt;&lt;p style=&quot;margin:0px;margin-left:4px;&quot;&gt;+ redo(): void&lt;/p&gt;" style="verticalAlign=top;align=left;overflow=fill;html=1;whiteSpace=wrap;" parent="WIyWlLk6GJQsqaUBKTNV-1" vertex="1">
          <mxGeometry x="1170" y="1444" width="210" height="120" as="geometry" />
        </mxCell>
        <mxCell id="HoljnPIvToN0olSSxeQU-4" value="&lt;p style=&quot;margin:0px;margin-top:4px;text-align:center;&quot;&gt;&lt;i&gt;&amp;lt;&amp;lt;abstract&amp;gt;&amp;gt;&lt;/i&gt;&lt;br&gt;&lt;b&gt;TrainHall&lt;/b&gt;&lt;b&gt;Command&lt;/b&gt;&lt;/p&gt;&lt;hr size=&quot;1&quot; style=&quot;border-style:solid;&quot;&gt;&lt;p style=&quot;margin:0px;margin-left:4px;&quot;&gt;+ execute(**kwargs): void&lt;br&gt;+&amp;nbsp;&lt;span style=&quot;background-color: initial;&quot;&gt;undo(**kwargs): void&lt;/span&gt;&lt;/p&gt;" style="verticalAlign=top;align=left;overflow=fill;html=1;whiteSpace=wrap;" parent="WIyWlLk6GJQsqaUBKTNV-1" vertex="1">
          <mxGeometry x="317" y="1640" width="210" height="80" as="geometry" />
        </mxCell>
        <mxCell id="HoljnPIvToN0olSSxeQU-5" value="&lt;p style=&quot;margin:0px;margin-top:4px;text-align:center;&quot;&gt;&lt;i&gt;&amp;lt;&amp;lt;abstract&amp;gt;&amp;gt;&lt;/i&gt;&lt;br&gt;&lt;b&gt;Station&lt;/b&gt;&lt;b&gt;Command&lt;/b&gt;&lt;/p&gt;&lt;hr size=&quot;1&quot; style=&quot;border-style:solid;&quot;&gt;&lt;p style=&quot;margin:0px;margin-left:4px;&quot;&gt;+ execute(**kwargs): void&lt;br&gt;+&amp;nbsp;&lt;span style=&quot;background-color: initial;&quot;&gt;undo(**kwargs): void&lt;/span&gt;&lt;/p&gt;" style="verticalAlign=top;align=left;overflow=fill;html=1;whiteSpace=wrap;" parent="WIyWlLk6GJQsqaUBKTNV-1" vertex="1">
          <mxGeometry x="318" y="410" width="210" height="80" as="geometry" />
        </mxCell>
        <mxCell id="HoljnPIvToN0olSSxeQU-6" value="&lt;p style=&quot;margin:0px;margin-top:4px;text-align:center;&quot;&gt;&lt;i&gt;&amp;lt;&amp;lt;abstract&amp;gt;&amp;gt;&lt;/i&gt;&lt;br&gt;&lt;b&gt;TrainCommand&lt;/b&gt;&lt;/p&gt;&lt;hr size=&quot;1&quot; style=&quot;border-style:solid;&quot;&gt;&lt;p style=&quot;margin:0px;margin-left:4px;&quot;&gt;+ execute(**kwargs): void&lt;br&gt;+&amp;nbsp;&lt;span style=&quot;background-color: initial;&quot;&gt;undo(**kwargs): void&lt;/span&gt;&lt;/p&gt;" style="verticalAlign=top;align=left;overflow=fill;html=1;whiteSpace=wrap;" parent="WIyWlLk6GJQsqaUBKTNV-1" vertex="1">
          <mxGeometry x="1175" y="1640" width="210" height="80" as="geometry" />
        </mxCell>
        <mxCell id="HoljnPIvToN0olSSxeQU-7" value="&lt;p style=&quot;margin:0px;margin-top:4px;text-align:center;&quot;&gt;&lt;i&gt;&amp;lt;&amp;lt;abstract&amp;gt;&amp;gt;&lt;/i&gt;&lt;br&gt;&lt;b&gt;RailwayCompany&lt;/b&gt;&lt;b&gt;Command&lt;/b&gt;&lt;/p&gt;&lt;hr size=&quot;1&quot; style=&quot;border-style:solid;&quot;&gt;&lt;p style=&quot;margin:0px;margin-left:4px;&quot;&gt;+ execute(**kwargs): void&lt;br&gt;+&amp;nbsp;&lt;span style=&quot;background-color: initial;&quot;&gt;undo(**kwargs): void&lt;/span&gt;&lt;/p&gt;" style="verticalAlign=top;align=left;overflow=fill;html=1;whiteSpace=wrap;" parent="WIyWlLk6GJQsqaUBKTNV-1" vertex="1">
          <mxGeometry x="1165" y="410" width="210" height="80" as="geometry" />
        </mxCell>
        <mxCell id="HoljnPIvToN0olSSxeQU-8" value="&lt;p style=&quot;margin:0px;margin-top:4px;text-align:center;&quot;&gt;&lt;b&gt;Create&lt;/b&gt;&lt;b&gt;TrainHall&lt;/b&gt;&lt;b&gt;Command&lt;/b&gt;&lt;br&gt;&lt;/p&gt;&lt;hr size=&quot;1&quot; style=&quot;border-style:solid;&quot;&gt;&lt;p style=&quot;margin:0px;margin-left:4px;&quot;&gt;&lt;/p&gt;&lt;p style=&quot;margin:0px;margin-left:4px;&quot;&gt;+ execute(command, **kwargs): TrainHall&lt;/p&gt;&lt;p style=&quot;margin:0px;margin-left:4px;&quot;&gt;+ undo(): void&lt;/p&gt;" style="verticalAlign=top;align=left;overflow=fill;html=1;whiteSpace=wrap;" parent="WIyWlLk6GJQsqaUBKTNV-1" vertex="1">
          <mxGeometry x="63" y="1780" width="230" height="70" as="geometry" />
        </mxCell>
        <mxCell id="HoljnPIvToN0olSSxeQU-9" value="&lt;p style=&quot;margin:0px;margin-top:4px;text-align:center;&quot;&gt;&lt;b&gt;Create&lt;/b&gt;&lt;b&gt;Station&lt;/b&gt;&lt;b&gt;Command&lt;/b&gt;&lt;/p&gt;&lt;hr size=&quot;1&quot; style=&quot;border-style:solid;&quot;&gt;&lt;p style=&quot;margin:0px;margin-left:4px;&quot;&gt;+ execute(command, **kwargs): Station&lt;/p&gt;&lt;p style=&quot;margin:0px;margin-left:4px;&quot;&gt;+ undo(): void&lt;/p&gt;" style="verticalAlign=top;align=left;overflow=fill;html=1;whiteSpace=wrap;" parent="WIyWlLk6GJQsqaUBKTNV-1" vertex="1">
          <mxGeometry x="70" y="560" width="220" height="70" as="geometry" />
        </mxCell>
        <mxCell id="HoljnPIvToN0olSSxeQU-10" value="&lt;p style=&quot;margin:0px;margin-top:4px;text-align:center;&quot;&gt;&lt;b&gt;Create&lt;/b&gt;&lt;b&gt;RailwayCompany&lt;/b&gt;&lt;b&gt;Command&lt;/b&gt;&lt;/p&gt;&lt;hr size=&quot;1&quot; style=&quot;border-style:solid;&quot;&gt;&lt;p style=&quot;margin:0px;margin-left:4px;&quot;&gt;+ execute(command, **kwargs): RailwayCompany&lt;/p&gt;&lt;p style=&quot;margin:0px;margin-left:4px;&quot;&gt;+ undo(): void&lt;/p&gt;" style="verticalAlign=top;align=left;overflow=fill;html=1;whiteSpace=wrap;" parent="WIyWlLk6GJQsqaUBKTNV-1" vertex="1">
          <mxGeometry x="850" y="560" width="280" height="70" as="geometry" />
        </mxCell>
        <mxCell id="HoljnPIvToN0olSSxeQU-11" value="&lt;p style=&quot;margin:0px;margin-top:4px;text-align:center;&quot;&gt;&lt;b&gt;CreateTrainCommand&lt;/b&gt;&lt;/p&gt;&lt;hr size=&quot;1&quot; style=&quot;border-style:solid;&quot;&gt;&lt;p style=&quot;margin:0px;margin-left:4px;&quot;&gt;+ execute(command, **kwargs): Train&lt;/p&gt;&lt;p style=&quot;margin:0px;margin-left:4px;&quot;&gt;+ undo(): void&lt;/p&gt;" style="verticalAlign=top;align=left;overflow=fill;html=1;whiteSpace=wrap;" parent="WIyWlLk6GJQsqaUBKTNV-1" vertex="1">
          <mxGeometry x="900" y="1780" width="230" height="70" as="geometry" />
        </mxCell>
        <mxCell id="HoljnPIvToN0olSSxeQU-12" value="&lt;p style=&quot;margin:0px;margin-top:4px;text-align:center;&quot;&gt;&lt;b&gt;Update&lt;/b&gt;&lt;b&gt;TrainHall&lt;/b&gt;&lt;b&gt;Command&lt;/b&gt;&lt;br&gt;&lt;/p&gt;&lt;hr size=&quot;1&quot; style=&quot;border-style:solid;&quot;&gt;&lt;p style=&quot;margin:0px;margin-left:4px;&quot;&gt;&lt;/p&gt;&lt;p style=&quot;margin:0px;margin-left:4px;&quot;&gt;+ execute(command, **kwargs): TrainHall&lt;/p&gt;&lt;p style=&quot;margin:0px;margin-left:4px;&quot;&gt;+ undo(): void&lt;/p&gt;" style="verticalAlign=top;align=left;overflow=fill;html=1;whiteSpace=wrap;" parent="WIyWlLk6GJQsqaUBKTNV-1" vertex="1">
          <mxGeometry x="306" y="1780" width="230" height="70" as="geometry" />
        </mxCell>
        <mxCell id="HoljnPIvToN0olSSxeQU-13" value="&lt;p style=&quot;margin:0px;margin-top:4px;text-align:center;&quot;&gt;&lt;b&gt;Update&lt;/b&gt;&lt;b&gt;Station&lt;/b&gt;&lt;b&gt;Command&lt;/b&gt;&lt;/p&gt;&lt;hr size=&quot;1&quot; style=&quot;border-style:solid;&quot;&gt;&lt;p style=&quot;margin:0px;margin-left:4px;&quot;&gt;+ execute(command, **kwargs): Station&lt;/p&gt;&lt;p style=&quot;margin:0px;margin-left:4px;&quot;&gt;+ undo(): void&lt;/p&gt;" style="verticalAlign=top;align=left;overflow=fill;html=1;whiteSpace=wrap;" parent="WIyWlLk6GJQsqaUBKTNV-1" vertex="1">
          <mxGeometry x="313" y="560" width="220" height="70" as="geometry" />
        </mxCell>
        <mxCell id="HoljnPIvToN0olSSxeQU-14" value="&lt;p style=&quot;margin:0px;margin-top:4px;text-align:center;&quot;&gt;&lt;b&gt;Update&lt;/b&gt;&lt;b&gt;RailwayCompany&lt;/b&gt;&lt;b&gt;Command&lt;/b&gt;&lt;/p&gt;&lt;hr size=&quot;1&quot; style=&quot;border-style:solid;&quot;&gt;&lt;p style=&quot;margin:0px;margin-left:4px;&quot;&gt;+ execute(command, **kwargs): RailwayCompany&lt;/p&gt;&lt;p style=&quot;margin:0px;margin-left:4px;&quot;&gt;+ undo(): void&lt;/p&gt;" style="verticalAlign=top;align=left;overflow=fill;html=1;whiteSpace=wrap;" parent="WIyWlLk6GJQsqaUBKTNV-1" vertex="1">
          <mxGeometry x="1140" y="560" width="280" height="70" as="geometry" />
        </mxCell>
        <mxCell id="HoljnPIvToN0olSSxeQU-15" value="&lt;p style=&quot;margin:0px;margin-top:4px;text-align:center;&quot;&gt;&lt;b&gt;UpdateTrainCommand&lt;/b&gt;&lt;/p&gt;&lt;hr size=&quot;1&quot; style=&quot;border-style:solid;&quot;&gt;&lt;p style=&quot;margin:0px;margin-left:4px;&quot;&gt;+ execute(command, **kwargs): Train&lt;/p&gt;&lt;p style=&quot;margin:0px;margin-left:4px;&quot;&gt;+ undo(): void&lt;/p&gt;" style="verticalAlign=top;align=left;overflow=fill;html=1;whiteSpace=wrap;" parent="WIyWlLk6GJQsqaUBKTNV-1" vertex="1">
          <mxGeometry x="1160" y="1780" width="230" height="70" as="geometry" />
        </mxCell>
        <mxCell id="HoljnPIvToN0olSSxeQU-16" value="&lt;p style=&quot;margin:0px;margin-top:4px;text-align:center;&quot;&gt;&lt;b style=&quot;background-color: initial;&quot;&gt;Delete&lt;/b&gt;&lt;b&gt;TrainHall&lt;/b&gt;&lt;b&gt;Command&lt;/b&gt;&lt;br&gt;&lt;/p&gt;&lt;hr size=&quot;1&quot; style=&quot;border-style:solid;&quot;&gt;&lt;p style=&quot;margin:0px;margin-left:4px;&quot;&gt;&lt;/p&gt;&lt;p style=&quot;margin:0px;margin-left:4px;&quot;&gt;+ execute(command, **kwargs): string&lt;/p&gt;&lt;p style=&quot;margin:0px;margin-left:4px;&quot;&gt;+ undo(): void&lt;/p&gt;" style="verticalAlign=top;align=left;overflow=fill;html=1;whiteSpace=wrap;" parent="WIyWlLk6GJQsqaUBKTNV-1" vertex="1">
          <mxGeometry x="553" y="1780" width="230" height="70" as="geometry" />
        </mxCell>
        <mxCell id="HoljnPIvToN0olSSxeQU-17" value="&lt;p style=&quot;margin:0px;margin-top:4px;text-align:center;&quot;&gt;&lt;b&gt;Delete&lt;/b&gt;&lt;b&gt;Station&lt;/b&gt;&lt;b&gt;Command&lt;/b&gt;&lt;/p&gt;&lt;hr size=&quot;1&quot; style=&quot;border-style:solid;&quot;&gt;&lt;p style=&quot;margin:0px;margin-left:4px;&quot;&gt;+ execute(command, **kwargs):&amp;nbsp;&lt;span style=&quot;background-color: initial;&quot;&gt;string&lt;/span&gt;&lt;/p&gt;&lt;p style=&quot;margin:0px;margin-left:4px;&quot;&gt;+ undo(): void&lt;/p&gt;" style="verticalAlign=top;align=left;overflow=fill;html=1;whiteSpace=wrap;" parent="WIyWlLk6GJQsqaUBKTNV-1" vertex="1">
          <mxGeometry x="560" y="560" width="220" height="70" as="geometry" />
        </mxCell>
        <mxCell id="HoljnPIvToN0olSSxeQU-18" value="&lt;p style=&quot;margin:0px;margin-top:4px;text-align:center;&quot;&gt;&lt;b style=&quot;background-color: initial;&quot;&gt;Delete&lt;/b&gt;&lt;b&gt;RailwayCompany&lt;/b&gt;&lt;b&gt;Command&lt;/b&gt;&lt;/p&gt;&lt;hr size=&quot;1&quot; style=&quot;border-style:solid;&quot;&gt;&lt;p style=&quot;margin:0px;margin-left:4px;&quot;&gt;+ execute(command, **kwargs):&amp;nbsp;&lt;span style=&quot;background-color: initial;&quot;&gt;string&lt;/span&gt;&lt;/p&gt;&lt;p style=&quot;margin:0px;margin-left:4px;&quot;&gt;+ undo(): void&lt;/p&gt;" style="verticalAlign=top;align=left;overflow=fill;html=1;whiteSpace=wrap;" parent="WIyWlLk6GJQsqaUBKTNV-1" vertex="1">
          <mxGeometry x="1432" y="560" width="220" height="70" as="geometry" />
        </mxCell>
        <mxCell id="HoljnPIvToN0olSSxeQU-19" value="&lt;p style=&quot;margin:0px;margin-top:4px;text-align:center;&quot;&gt;&lt;b style=&quot;background-color: initial;&quot;&gt;Delete&lt;/b&gt;&lt;b&gt;TrainCommand&lt;/b&gt;&lt;/p&gt;&lt;hr size=&quot;1&quot; style=&quot;border-style:solid;&quot;&gt;&lt;p style=&quot;margin:0px;margin-left:4px;&quot;&gt;+ execute(command, **kwargs):&amp;nbsp;&lt;span style=&quot;background-color: initial;&quot;&gt;string&lt;/span&gt;&lt;/p&gt;&lt;p style=&quot;margin:0px;margin-left:4px;&quot;&gt;+ undo(): void&lt;/p&gt;" style="verticalAlign=top;align=left;overflow=fill;html=1;whiteSpace=wrap;" parent="WIyWlLk6GJQsqaUBKTNV-1" vertex="1">
          <mxGeometry x="1420" y="1780" width="230" height="70" as="geometry" />
        </mxCell>
        <mxCell id="kHMZLF0wuuY4l7XT_qzu-0" value="&lt;p style=&quot;margin:0px;margin-top:4px;text-align:center;&quot;&gt;&lt;b&gt;StationType&lt;/b&gt;&lt;/p&gt;&lt;hr size=&quot;1&quot; style=&quot;border-style:solid;&quot;&gt;&lt;p style=&quot;margin:0px;margin-left:4px;&quot;&gt;+&amp;nbsp;&lt;span style=&quot;background-color: initial;&quot;&gt;model: Station&lt;/span&gt;&lt;/p&gt;" style="verticalAlign=top;align=left;overflow=fill;html=1;whiteSpace=wrap;" parent="WIyWlLk6GJQsqaUBKTNV-1" vertex="1">
          <mxGeometry x="318" y="675" width="210" height="60" as="geometry" />
        </mxCell>
        <mxCell id="kHMZLF0wuuY4l7XT_qzu-1" value="&lt;p style=&quot;margin:0px;margin-top:4px;text-align:center;&quot;&gt;&lt;b&gt;TrainHallType&lt;/b&gt;&lt;/p&gt;&lt;hr size=&quot;1&quot; style=&quot;border-style:solid;&quot;&gt;&lt;p style=&quot;margin:0px;margin-left:4px;&quot;&gt;- model: TrainHall&lt;/p&gt;" style="verticalAlign=top;align=left;overflow=fill;html=1;whiteSpace=wrap;" parent="WIyWlLk6GJQsqaUBKTNV-1" vertex="1">
          <mxGeometry x="318" y="1906" width="210" height="60" as="geometry" />
        </mxCell>
        <mxCell id="kHMZLF0wuuY4l7XT_qzu-2" value="&lt;p style=&quot;margin:0px;margin-top:4px;text-align:center;&quot;&gt;&lt;b&gt;TrainType&lt;/b&gt;&lt;/p&gt;&lt;hr size=&quot;1&quot; style=&quot;border-style:solid;&quot;&gt;&lt;p style=&quot;margin:0px;margin-left:4px;&quot;&gt;-&amp;nbsp;&lt;span style=&quot;background-color: initial;&quot;&gt;model: Train&lt;/span&gt;&lt;/p&gt;" style="verticalAlign=top;align=left;overflow=fill;html=1;whiteSpace=wrap;" parent="WIyWlLk6GJQsqaUBKTNV-1" vertex="1">
          <mxGeometry x="1180" y="1900" width="210" height="60" as="geometry" />
        </mxCell>
        <mxCell id="kHMZLF0wuuY4l7XT_qzu-3" value="&lt;p style=&quot;margin:0px;margin-top:4px;text-align:center;&quot;&gt;&lt;b&gt;RailwayCompanyType&lt;/b&gt;&lt;/p&gt;&lt;hr size=&quot;1&quot; style=&quot;border-style:solid;&quot;&gt;&lt;p style=&quot;margin:0px;margin-left:4px;&quot;&gt;-&amp;nbsp;&lt;span style=&quot;background-color: initial;&quot;&gt;model: RailwayCompany&lt;/span&gt;&lt;/p&gt;" style="verticalAlign=top;align=left;overflow=fill;html=1;whiteSpace=wrap;" parent="WIyWlLk6GJQsqaUBKTNV-1" vertex="1">
          <mxGeometry x="1165" y="675" width="210" height="60" as="geometry" />
        </mxCell>
        <mxCell id="kHMZLF0wuuY4l7XT_qzu-4" value="&lt;p style=&quot;margin:0px;margin-top:4px;text-align:center;&quot;&gt;&lt;b&gt;Station&lt;/b&gt;&lt;/p&gt;&lt;hr size=&quot;1&quot; style=&quot;border-style:solid;&quot;&gt;&lt;p style=&quot;margin:0px;margin-left:4px;&quot;&gt;- station_&lt;span style=&quot;background-color: initial;&quot;&gt;name: CharField&lt;/span&gt;&lt;/p&gt;&lt;p style=&quot;margin:0px;margin-left:4px;&quot;&gt;&lt;span style=&quot;background-color: initial;&quot;&gt;-&amp;nbsp;&lt;/span&gt;station_&lt;span style=&quot;background-color: initial;&quot;&gt;city:&amp;nbsp;&lt;/span&gt;&lt;span style=&quot;background-color: initial;&quot;&gt;CharField&lt;/span&gt;&lt;/p&gt;&lt;p style=&quot;margin:0px;margin-left:4px;&quot;&gt;&lt;span style=&quot;background-color: initial;&quot;&gt;-&amp;nbsp;&lt;/span&gt;station_&lt;span style=&quot;background-color: initial;&quot;&gt;province: CharField&lt;/span&gt;&lt;/p&gt;" style="verticalAlign=top;align=left;overflow=fill;html=1;whiteSpace=wrap;" parent="WIyWlLk6GJQsqaUBKTNV-1" vertex="1">
          <mxGeometry x="318" y="780" width="210" height="80" as="geometry" />
        </mxCell>
        <mxCell id="kHMZLF0wuuY4l7XT_qzu-5" value="&lt;p style=&quot;margin:0px;margin-top:4px;text-align:center;&quot;&gt;&lt;b&gt;TrainHall&lt;/b&gt;&lt;/p&gt;&lt;hr size=&quot;1&quot; style=&quot;border-style:solid;&quot;&gt;&lt;p style=&quot;margin:0px;margin-left:4px;&quot;&gt;- hall_name: CharField&lt;/p&gt;&lt;p style=&quot;margin:0px;margin-left:4px;&quot;&gt;- hall_description: TextField&lt;/p&gt;" style="verticalAlign=top;align=left;overflow=fill;html=1;whiteSpace=wrap;" parent="WIyWlLk6GJQsqaUBKTNV-1" vertex="1">
          <mxGeometry x="318" y="2018.5" width="210" height="95" as="geometry" />
        </mxCell>
        <mxCell id="kHMZLF0wuuY4l7XT_qzu-6" value="&lt;p style=&quot;margin:0px;margin-top:4px;text-align:center;&quot;&gt;&lt;b&gt;RailwayCompany&lt;/b&gt;&lt;/p&gt;&lt;hr size=&quot;1&quot; style=&quot;border-style:solid;&quot;&gt;&lt;p style=&quot;margin:0px;margin-left:4px;&quot;&gt;- railway_name: CharField&lt;/p&gt;&lt;p style=&quot;margin:0px;margin-left:4px;&quot;&gt;- railway_description: TextField&lt;br&gt;&lt;/p&gt;&lt;p style=&quot;margin:0px;margin-left:4px;&quot;&gt;- refund_policy:&amp;nbsp;&lt;span style=&quot;background-color: initial;&quot;&gt;CharField&lt;/span&gt;&lt;br&gt;&lt;/p&gt;&lt;p style=&quot;margin:0px;margin-left:4px;&quot;&gt;- railway_logo:&amp;nbsp;&lt;span style=&quot;background-color: initial;&quot;&gt;ImageField&lt;/span&gt;&lt;br&gt;&lt;/p&gt;" style="verticalAlign=top;align=left;overflow=fill;html=1;whiteSpace=wrap;" parent="WIyWlLk6GJQsqaUBKTNV-1" vertex="1">
          <mxGeometry x="1165" y="780" width="210" height="95" as="geometry" />
        </mxCell>
        <mxCell id="kHMZLF0wuuY4l7XT_qzu-7" value="&lt;p style=&quot;margin:0px;margin-top:4px;text-align:center;&quot;&gt;&lt;b&gt;Train&lt;/b&gt;&lt;/p&gt;&lt;hr size=&quot;1&quot; style=&quot;border-style:solid;&quot;&gt;&lt;p style=&quot;margin:0px;margin-left:4px;&quot;&gt;- train_number: CharField&lt;/p&gt;&lt;p style=&quot;margin:0px;margin-left:4px;&quot;&gt;- train_type: TRAIN_TYPES&lt;/p&gt;&lt;p style=&quot;margin:0px;margin-left:4px;&quot;&gt;- departure_station: Station&lt;/p&gt;&lt;p style=&quot;margin:0px;margin-left:4px;&quot;&gt;- arrival_station: Station&lt;/p&gt;&lt;p style=&quot;margin:0px;margin-left:4px;&quot;&gt;- departure_datetime: DateTimeField&lt;/p&gt;&lt;p style=&quot;margin:0px;margin-left:4px;&quot;&gt;- arrival_datetime: DateTimeField&lt;/p&gt;&lt;p style=&quot;margin:0px;margin-left:4px;&quot;&gt;- railway_company: RailwayCompany&lt;/p&gt;&lt;p style=&quot;margin:0px;margin-left:4px;&quot;&gt;- capacity: IntegerField&lt;/p&gt;&lt;p style=&quot;margin:0px;margin-left:4px;&quot;&gt;- hall: TrainHall&lt;/p&gt;&lt;p style=&quot;margin:0px;margin-left:4px;&quot;&gt;- base_price: BigIntegerField&lt;/p&gt;&lt;p style=&quot;margin:0px;margin-left:4px;&quot;&gt;&lt;span style=&quot;background-color: initial;&quot;&gt;- stars: IntegerField&lt;/span&gt;&lt;/p&gt;&lt;p style=&quot;margin:0px;margin-left:4px;&quot;&gt;- tax: DecimalField&lt;/p&gt;&lt;p style=&quot;margin:0px;margin-left:4px;&quot;&gt;- discount: DecimalField&lt;/p&gt;&lt;p style=&quot;margin:0px;margin-left:4px;&quot;&gt;- final_price:&amp;nbsp;&lt;span style=&quot;background-color: initial;&quot;&gt;BigIntegerField&lt;/span&gt;&lt;br&gt;&lt;/p&gt;&lt;hr size=&quot;1&quot; style=&quot;border-style:solid;&quot;&gt;&lt;p style=&quot;margin: 0px 0px 0px 4px;&quot;&gt;&lt;span style=&quot;background-color: initial;&quot;&gt;+ final_pirce_calculated(): final_price&lt;/span&gt;&lt;br&gt;&lt;/p&gt;&lt;p style=&quot;margin: 0px 0px 0px 4px;&quot;&gt;+ save(**kwargs): void&lt;/p&gt;" style="verticalAlign=top;align=left;overflow=fill;html=1;whiteSpace=wrap;" parent="WIyWlLk6GJQsqaUBKTNV-1" vertex="1">
          <mxGeometry x="1180" y="2010" width="210" height="280" as="geometry" />
        </mxCell>
        <mxCell id="cA7v9_uqXsThu2jaeRYp-0" value="1" style="endArrow=open;html=1;endSize=12;startArrow=diamondThin;startSize=14;startFill=1;edgeStyle=orthogonalEdgeStyle;align=left;verticalAlign=bottom;rounded=0;exitX=0.5;exitY=0;exitDx=0;exitDy=0;entryX=0.5;entryY=1;entryDx=0;entryDy=0;" parent="WIyWlLk6GJQsqaUBKTNV-1" source="HoljnPIvToN0olSSxeQU-5" target="HoljnPIvToN0olSSxeQU-1" edge="1">
          <mxGeometry x="-1" y="23" relative="1" as="geometry">
            <mxPoint x="400" y="390" as="sourcePoint" />
            <mxPoint x="560" y="390" as="targetPoint" />
            <mxPoint as="offset" />
          </mxGeometry>
        </mxCell>
        <mxCell id="cA7v9_uqXsThu2jaeRYp-1" value="[*]" style="text;html=1;align=center;verticalAlign=middle;resizable=0;points=[];autosize=1;strokeColor=none;fillColor=none;" parent="WIyWlLk6GJQsqaUBKTNV-1" vertex="1">
          <mxGeometry x="389" y="353" width="30" height="30" as="geometry" />
        </mxCell>
        <mxCell id="cA7v9_uqXsThu2jaeRYp-2" value="" style="endArrow=block;endSize=10;endFill=0;shadow=0;strokeWidth=1;rounded=0;curved=0;edgeStyle=elbowEdgeStyle;elbow=vertical;entryX=0.5;entryY=1;entryDx=0;entryDy=0;" parent="WIyWlLk6GJQsqaUBKTNV-1" target="HoljnPIvToN0olSSxeQU-5" edge="1">
          <mxGeometry width="160" relative="1" as="geometry">
            <mxPoint x="680" y="560" as="sourcePoint" />
            <mxPoint x="570" y="458" as="targetPoint" />
            <Array as="points">
              <mxPoint x="550" y="530" />
            </Array>
          </mxGeometry>
        </mxCell>
        <mxCell id="cA7v9_uqXsThu2jaeRYp-3" value="" style="endArrow=block;endSize=10;endFill=0;shadow=0;strokeWidth=1;rounded=0;curved=0;edgeStyle=elbowEdgeStyle;elbow=vertical;entryX=0.5;entryY=1;entryDx=0;entryDy=0;exitX=0.5;exitY=0;exitDx=0;exitDy=0;" parent="WIyWlLk6GJQsqaUBKTNV-1" source="HoljnPIvToN0olSSxeQU-9" target="HoljnPIvToN0olSSxeQU-5" edge="1">
          <mxGeometry width="160" relative="1" as="geometry">
            <mxPoint x="289" y="592" as="sourcePoint" />
            <mxPoint x="389" y="490" as="targetPoint" />
            <Array as="points">
              <mxPoint x="360" y="530" />
            </Array>
          </mxGeometry>
        </mxCell>
        <mxCell id="cA7v9_uqXsThu2jaeRYp-4" value="" style="endArrow=block;endSize=10;endFill=0;shadow=0;strokeWidth=1;rounded=0;curved=0;edgeStyle=elbowEdgeStyle;elbow=vertical;exitX=0.5;exitY=0;exitDx=0;exitDy=0;entryX=0.5;entryY=1;entryDx=0;entryDy=0;" parent="WIyWlLk6GJQsqaUBKTNV-1" source="HoljnPIvToN0olSSxeQU-13" target="HoljnPIvToN0olSSxeQU-5" edge="1">
          <mxGeometry width="160" relative="1" as="geometry">
            <mxPoint x="190" y="570" as="sourcePoint" />
            <mxPoint x="420" y="490" as="targetPoint" />
            <Array as="points">
              <mxPoint x="370" y="540" />
            </Array>
          </mxGeometry>
        </mxCell>
        <mxCell id="cA7v9_uqXsThu2jaeRYp-6" value="" style="endArrow=open;endFill=1;endSize=12;html=1;rounded=0;exitX=0.5;exitY=1;exitDx=0;exitDy=0;entryX=1;entryY=0;entryDx=0;entryDy=0;" parent="WIyWlLk6GJQsqaUBKTNV-1" source="HoljnPIvToN0olSSxeQU-17" target="kHMZLF0wuuY4l7XT_qzu-0" edge="1">
          <mxGeometry width="160" relative="1" as="geometry">
            <mxPoint x="320" y="660" as="sourcePoint" />
            <mxPoint x="480" y="660" as="targetPoint" />
          </mxGeometry>
        </mxCell>
        <mxCell id="cA7v9_uqXsThu2jaeRYp-7" value="" style="endArrow=open;endFill=1;endSize=12;html=1;rounded=0;exitX=0.5;exitY=1;exitDx=0;exitDy=0;" parent="WIyWlLk6GJQsqaUBKTNV-1" source="HoljnPIvToN0olSSxeQU-13" target="kHMZLF0wuuY4l7XT_qzu-0" edge="1">
          <mxGeometry width="160" relative="1" as="geometry">
            <mxPoint x="320" y="660" as="sourcePoint" />
            <mxPoint x="480" y="660" as="targetPoint" />
          </mxGeometry>
        </mxCell>
        <mxCell id="cA7v9_uqXsThu2jaeRYp-8" value="" style="endArrow=open;endFill=1;endSize=12;html=1;rounded=0;exitX=0.5;exitY=1;exitDx=0;exitDy=0;entryX=0;entryY=0;entryDx=0;entryDy=0;" parent="WIyWlLk6GJQsqaUBKTNV-1" source="HoljnPIvToN0olSSxeQU-9" target="kHMZLF0wuuY4l7XT_qzu-0" edge="1">
          <mxGeometry width="160" relative="1" as="geometry">
            <mxPoint x="320" y="660" as="sourcePoint" />
            <mxPoint x="480" y="660" as="targetPoint" />
          </mxGeometry>
        </mxCell>
        <mxCell id="cA7v9_uqXsThu2jaeRYp-9" value="Use" style="endArrow=open;endSize=12;dashed=1;html=1;rounded=0;exitX=0.518;exitY=1.011;exitDx=0;exitDy=0;entryX=0.486;entryY=0;entryDx=0;entryDy=0;entryPerimeter=0;exitPerimeter=0;" parent="WIyWlLk6GJQsqaUBKTNV-1" source="cA7v9_uqXsThu2jaeRYp-10" target="HoljnPIvToN0olSSxeQU-1" edge="1">
          <mxGeometry x="-0.0119" width="160" relative="1" as="geometry">
            <mxPoint x="400" y="180" as="sourcePoint" />
            <mxPoint x="560" y="180" as="targetPoint" />
            <mxPoint as="offset" />
          </mxGeometry>
        </mxCell>
        <mxCell id="cA7v9_uqXsThu2jaeRYp-10" value="&lt;p style=&quot;margin:0px;margin-top:4px;text-align:center;&quot;&gt;&lt;b&gt;StationMutations&lt;/b&gt;&lt;/p&gt;&lt;hr size=&quot;1&quot; style=&quot;border-style:solid;&quot;&gt;&lt;p style=&quot;margin:0px;margin-left:4px;&quot;&gt;&lt;/p&gt;&lt;p style=&quot;margin:0px;margin-left:4px;&quot;&gt;+ create_station(station_name, ...): StationType&lt;/p&gt;&lt;p style=&quot;margin:0px;margin-left:4px;&quot;&gt;+ update_station(&lt;span style=&quot;background-color: initial;&quot;&gt;station_name, ...&lt;/span&gt;&lt;span style=&quot;background-color: initial;&quot;&gt;):&amp;nbsp;&lt;/span&gt;&lt;span style=&quot;background-color: initial;&quot;&gt;StationType&lt;/span&gt;&lt;/p&gt;&lt;p style=&quot;margin:0px;margin-left:4px;&quot;&gt;+ delete_station(station_id): String&lt;/p&gt;&lt;p style=&quot;margin:0px;margin-left:4px;&quot;&gt;+ undo_operation(): String&lt;/p&gt;&lt;p style=&quot;margin:0px;margin-left:4px;&quot;&gt;+ redo_operation(): String&lt;/p&gt;" style="verticalAlign=top;align=left;overflow=fill;html=1;whiteSpace=wrap;" parent="WIyWlLk6GJQsqaUBKTNV-1" vertex="1">
          <mxGeometry x="258" y="60" width="310" height="120" as="geometry" />
        </mxCell>
        <mxCell id="cA7v9_uqXsThu2jaeRYp-12" value="&lt;p style=&quot;margin:0px;margin-top:4px;text-align:center;&quot;&gt;&lt;b&gt;StationQueries&lt;/b&gt;&lt;br&gt;&lt;/p&gt;&lt;hr size=&quot;1&quot; style=&quot;border-style:solid;&quot;&gt;&lt;p style=&quot;margin: 0px 0px 0px 4px;&quot;&gt;-&amp;nbsp;&lt;span style=&quot;background-color: initial;&quot;&gt;all_stations: List&amp;lt;StationType&amp;gt;&lt;/span&gt;&lt;/p&gt;&lt;p style=&quot;margin: 0px 0px 0px 4px;&quot;&gt;&lt;span style=&quot;background-color: initial;&quot;&gt;- station_by_name: StationType&lt;/span&gt;&lt;/p&gt;&lt;hr size=&quot;1&quot; style=&quot;border-style:solid;&quot;&gt;&lt;p style=&quot;margin:0px;margin-left:4px;&quot;&gt;+ resolved_all_stations(**kwargs): all_stations&lt;/p&gt;&lt;p style=&quot;margin:0px;margin-left:4px;&quot;&gt;+ resolved_station_by_name(station_name): StationType&amp;nbsp;&lt;/p&gt;" style="verticalAlign=top;align=left;overflow=fill;html=1;whiteSpace=wrap;" parent="WIyWlLk6GJQsqaUBKTNV-1" vertex="1">
          <mxGeometry x="490" y="880" width="320" height="110" as="geometry" />
        </mxCell>
        <mxCell id="cA7v9_uqXsThu2jaeRYp-14" value="" style="endArrow=open;endFill=1;endSize=12;html=1;rounded=0;entryX=1;entryY=0.75;entryDx=0;entryDy=0;exitX=0.477;exitY=-0.011;exitDx=0;exitDy=0;exitPerimeter=0;" parent="WIyWlLk6GJQsqaUBKTNV-1" source="cA7v9_uqXsThu2jaeRYp-12" target="kHMZLF0wuuY4l7XT_qzu-0" edge="1">
          <mxGeometry width="160" relative="1" as="geometry">
            <mxPoint x="440" y="800" as="sourcePoint" />
            <mxPoint x="600" y="800" as="targetPoint" />
            <Array as="points">
              <mxPoint x="643" y="720" />
            </Array>
          </mxGeometry>
        </mxCell>
        <mxCell id="cA7v9_uqXsThu2jaeRYp-15" value="" style="endArrow=block;startArrow=block;endFill=1;startFill=1;html=1;rounded=0;entryX=0.5;entryY=0;entryDx=0;entryDy=0;exitX=0.5;exitY=1;exitDx=0;exitDy=0;" parent="WIyWlLk6GJQsqaUBKTNV-1" source="kHMZLF0wuuY4l7XT_qzu-0" target="kHMZLF0wuuY4l7XT_qzu-4" edge="1">
          <mxGeometry width="160" relative="1" as="geometry">
            <mxPoint x="418" y="734" as="sourcePoint" />
            <mxPoint x="579" y="760" as="targetPoint" />
          </mxGeometry>
        </mxCell>
        <mxCell id="cA7v9_uqXsThu2jaeRYp-17" value="" style="endArrow=open;endFill=1;endSize=12;html=1;rounded=0;exitX=0;exitY=0.5;exitDx=0;exitDy=0;entryX=-0.002;entryY=0.586;entryDx=0;entryDy=0;entryPerimeter=0;" parent="WIyWlLk6GJQsqaUBKTNV-1" source="cA7v9_uqXsThu2jaeRYp-10" target="kHMZLF0wuuY4l7XT_qzu-0" edge="1">
          <mxGeometry width="160" relative="1" as="geometry">
            <mxPoint x="70" y="290" as="sourcePoint" />
            <mxPoint x="230" y="290" as="targetPoint" />
            <Array as="points">
              <mxPoint x="40" y="120" />
              <mxPoint x="40" y="560" />
              <mxPoint x="40" y="710" />
            </Array>
          </mxGeometry>
        </mxCell>
        <mxCell id="qJBdiUId8fytjKBIonkx-0" value="&lt;p style=&quot;margin:0px;margin-top:4px;text-align:center;&quot;&gt;&lt;b&gt;RailwayCompanyMutations&lt;/b&gt;&lt;/p&gt;&lt;hr size=&quot;1&quot; style=&quot;border-style:solid;&quot;&gt;&lt;p style=&quot;margin:0px;margin-left:4px;&quot;&gt;&lt;/p&gt;&lt;p style=&quot;margin:0px;margin-left:4px;&quot;&gt;+ create_railway_company(railway_name, ...): RailwayCompanyType&lt;/p&gt;&lt;p style=&quot;margin:0px;margin-left:4px;&quot;&gt;+ update_railway_co mpany(railway_name, ...):&lt;span style=&quot;background-color: initial;&quot;&gt;&amp;nbsp;&lt;/span&gt;&lt;span style=&quot;background-color: initial;&quot;&gt;RailwayCompanyType&lt;/span&gt;&lt;/p&gt;&lt;p style=&quot;margin:0px;margin-left:4px;&quot;&gt;+ delete_railway_company(railway_id):&amp;nbsp;String&lt;/p&gt;&lt;p style=&quot;margin:0px;margin-left:4px;&quot;&gt;+ undo_operation(): String&lt;/p&gt;&lt;p style=&quot;margin:0px;margin-left:4px;&quot;&gt;+ redo_operation(): String&lt;/p&gt;" style="verticalAlign=top;align=left;overflow=fill;html=1;whiteSpace=wrap;" parent="WIyWlLk6GJQsqaUBKTNV-1" vertex="1">
          <mxGeometry x="1080" y="60" width="380" height="120" as="geometry" />
        </mxCell>
        <mxCell id="qJBdiUId8fytjKBIonkx-1" value="&lt;p style=&quot;margin:0px;margin-top:4px;text-align:center;&quot;&gt;&lt;b&gt;RailwayCompanyQueries&lt;/b&gt;&lt;br&gt;&lt;/p&gt;&lt;hr size=&quot;1&quot; style=&quot;border-style:solid;&quot;&gt;&lt;p style=&quot;margin: 0px 0px 0px 4px;&quot;&gt;-&amp;nbsp;&lt;span style=&quot;background-color: initial;&quot;&gt;all_railway_companies: List&amp;lt;RailwayCompanyType&amp;gt;&lt;/span&gt;&lt;/p&gt;&lt;p style=&quot;margin: 0px 0px 0px 4px;&quot;&gt;&lt;span style=&quot;background-color: initial;&quot;&gt;-&amp;nbsp;&lt;/span&gt;railway_company&lt;span style=&quot;background-color: initial;&quot;&gt;_by_name:&amp;nbsp;&lt;/span&gt;&lt;span style=&quot;background-color: initial;&quot;&gt;RailwayCompanyType&lt;/span&gt;&lt;/p&gt;&lt;hr size=&quot;1&quot; style=&quot;border-style:solid;&quot;&gt;&lt;p style=&quot;margin:0px;margin-left:4px;&quot;&gt;+ resolved_railway_companies(**kwargs):&amp;nbsp;&lt;span style=&quot;background-color: initial;&quot;&gt;all_railway_companies&lt;/span&gt;&lt;/p&gt;&lt;p style=&quot;margin:0px;margin-left:4px;&quot;&gt;+ resolved_railway_company&lt;span style=&quot;background-color: initial;&quot;&gt;_by_name&lt;/span&gt;(railway_name): RailwayCompanyType&amp;nbsp;&lt;/p&gt;" style="verticalAlign=top;align=left;overflow=fill;html=1;whiteSpace=wrap;" parent="WIyWlLk6GJQsqaUBKTNV-1" vertex="1">
          <mxGeometry x="1210" y="900" width="430" height="110" as="geometry" />
        </mxCell>
        <mxCell id="qJBdiUId8fytjKBIonkx-2" value="" style="endArrow=open;endFill=1;endSize=12;html=1;rounded=0;exitX=0.5;exitY=1;exitDx=0;exitDy=0;entryX=1;entryY=0;entryDx=0;entryDy=0;" parent="WIyWlLk6GJQsqaUBKTNV-1" source="HoljnPIvToN0olSSxeQU-18" target="kHMZLF0wuuY4l7XT_qzu-3" edge="1">
          <mxGeometry width="160" relative="1" as="geometry">
            <mxPoint x="1552" y="630" as="sourcePoint" />
            <mxPoint x="1410" y="675" as="targetPoint" />
          </mxGeometry>
        </mxCell>
        <mxCell id="qJBdiUId8fytjKBIonkx-3" value="" style="endArrow=open;endFill=1;endSize=12;html=1;rounded=0;exitX=0.5;exitY=1;exitDx=0;exitDy=0;" parent="WIyWlLk6GJQsqaUBKTNV-1" edge="1">
          <mxGeometry width="160" relative="1" as="geometry">
            <mxPoint x="1280" y="630" as="sourcePoint" />
            <mxPoint x="1280" y="675" as="targetPoint" />
          </mxGeometry>
        </mxCell>
        <mxCell id="qJBdiUId8fytjKBIonkx-4" value="" style="endArrow=open;endFill=1;endSize=12;html=1;rounded=0;exitX=0.5;exitY=1;exitDx=0;exitDy=0;entryX=0;entryY=0;entryDx=0;entryDy=0;" parent="WIyWlLk6GJQsqaUBKTNV-1" target="kHMZLF0wuuY4l7XT_qzu-3" edge="1">
          <mxGeometry width="160" relative="1" as="geometry">
            <mxPoint x="960" y="630" as="sourcePoint" />
            <mxPoint x="1098" y="675" as="targetPoint" />
          </mxGeometry>
        </mxCell>
        <mxCell id="qJBdiUId8fytjKBIonkx-5" value="" style="endArrow=block;endSize=10;endFill=0;shadow=0;strokeWidth=1;rounded=0;curved=0;edgeStyle=elbowEdgeStyle;elbow=vertical;entryX=0.5;entryY=1;entryDx=0;entryDy=0;" parent="WIyWlLk6GJQsqaUBKTNV-1" edge="1">
          <mxGeometry width="160" relative="1" as="geometry">
            <mxPoint x="1535" y="560" as="sourcePoint" />
            <mxPoint x="1278" y="490" as="targetPoint" />
            <Array as="points">
              <mxPoint x="1405" y="530" />
            </Array>
          </mxGeometry>
        </mxCell>
        <mxCell id="qJBdiUId8fytjKBIonkx-6" value="" style="endArrow=block;endSize=10;endFill=0;shadow=0;strokeWidth=1;rounded=0;curved=0;edgeStyle=elbowEdgeStyle;elbow=vertical;exitX=0.5;exitY=0;exitDx=0;exitDy=0;entryX=0.5;entryY=1;entryDx=0;entryDy=0;" parent="WIyWlLk6GJQsqaUBKTNV-1" edge="1">
          <mxGeometry width="160" relative="1" as="geometry">
            <mxPoint x="1278" y="560" as="sourcePoint" />
            <mxPoint x="1278" y="490" as="targetPoint" />
            <Array as="points">
              <mxPoint x="1225" y="540" />
            </Array>
          </mxGeometry>
        </mxCell>
        <mxCell id="qJBdiUId8fytjKBIonkx-7" value="" style="endArrow=block;endSize=10;endFill=0;shadow=0;strokeWidth=1;rounded=0;curved=0;edgeStyle=elbowEdgeStyle;elbow=vertical;entryX=0.5;entryY=1;entryDx=0;entryDy=0;exitX=0.5;exitY=0;exitDx=0;exitDy=0;" parent="WIyWlLk6GJQsqaUBKTNV-1" edge="1">
          <mxGeometry width="160" relative="1" as="geometry">
            <mxPoint x="1035" y="560" as="sourcePoint" />
            <mxPoint x="1278" y="490" as="targetPoint" />
            <Array as="points">
              <mxPoint x="1215" y="530" />
            </Array>
          </mxGeometry>
        </mxCell>
        <mxCell id="qJBdiUId8fytjKBIonkx-8" value="1" style="endArrow=open;html=1;endSize=12;startArrow=diamondThin;startSize=14;startFill=1;edgeStyle=orthogonalEdgeStyle;align=left;verticalAlign=bottom;rounded=0;entryX=0.5;entryY=1;entryDx=0;entryDy=0;" parent="WIyWlLk6GJQsqaUBKTNV-1" edge="1">
          <mxGeometry x="-1" y="23" relative="1" as="geometry">
            <mxPoint x="1280" y="410" as="sourcePoint" />
            <mxPoint x="1280" y="362.5" as="targetPoint" />
            <mxPoint as="offset" />
          </mxGeometry>
        </mxCell>
        <mxCell id="qJBdiUId8fytjKBIonkx-9" value="[*]" style="text;html=1;align=center;verticalAlign=middle;resizable=0;points=[];autosize=1;strokeColor=none;fillColor=none;" parent="WIyWlLk6GJQsqaUBKTNV-1" vertex="1">
          <mxGeometry x="1247" y="356" width="30" height="30" as="geometry" />
        </mxCell>
        <mxCell id="qJBdiUId8fytjKBIonkx-10" value="Use" style="endArrow=open;endSize=12;dashed=1;html=1;rounded=0;exitX=0.518;exitY=1.011;exitDx=0;exitDy=0;exitPerimeter=0;" parent="WIyWlLk6GJQsqaUBKTNV-1" edge="1">
          <mxGeometry width="160" relative="1" as="geometry">
            <mxPoint x="1277" y="181" as="sourcePoint" />
            <mxPoint x="1278" y="240" as="targetPoint" />
          </mxGeometry>
        </mxCell>
        <mxCell id="qJBdiUId8fytjKBIonkx-11" value="" style="endArrow=block;startArrow=block;endFill=1;startFill=1;html=1;rounded=0;entryX=0.5;entryY=0;entryDx=0;entryDy=0;exitX=0.5;exitY=1;exitDx=0;exitDy=0;" parent="WIyWlLk6GJQsqaUBKTNV-1" edge="1">
          <mxGeometry width="160" relative="1" as="geometry">
            <mxPoint x="1277" y="735" as="sourcePoint" />
            <mxPoint x="1277" y="780" as="targetPoint" />
          </mxGeometry>
        </mxCell>
        <mxCell id="qJBdiUId8fytjKBIonkx-12" value="" style="endArrow=open;endFill=1;endSize=12;html=1;rounded=0;entryX=1;entryY=0.75;entryDx=0;entryDy=0;exitX=0.65;exitY=0.017;exitDx=0;exitDy=0;exitPerimeter=0;" parent="WIyWlLk6GJQsqaUBKTNV-1" source="qJBdiUId8fytjKBIonkx-1" edge="1">
          <mxGeometry width="160" relative="1" as="geometry">
            <mxPoint x="1490" y="869" as="sourcePoint" />
            <mxPoint x="1375" y="710" as="targetPoint" />
            <Array as="points">
              <mxPoint x="1490" y="710" />
            </Array>
          </mxGeometry>
        </mxCell>
        <mxCell id="qJBdiUId8fytjKBIonkx-13" value="" style="endArrow=open;endFill=1;endSize=12;html=1;rounded=0;exitX=0;exitY=0.5;exitDx=0;exitDy=0;entryX=0.003;entryY=0.453;entryDx=0;entryDy=0;entryPerimeter=0;" parent="WIyWlLk6GJQsqaUBKTNV-1" target="kHMZLF0wuuY4l7XT_qzu-3" edge="1">
          <mxGeometry width="160" relative="1" as="geometry">
            <mxPoint x="1078" y="100" as="sourcePoint" />
            <mxPoint x="1160" y="710" as="targetPoint" />
            <Array as="points">
              <mxPoint x="840" y="100" />
              <mxPoint x="840" y="320" />
              <mxPoint x="840" y="550" />
              <mxPoint x="840" y="702" />
            </Array>
          </mxGeometry>
        </mxCell>
        <mxCell id="qJBdiUId8fytjKBIonkx-14" value="" style="endArrow=block;endSize=10;endFill=0;shadow=0;strokeWidth=1;rounded=0;curved=0;edgeStyle=elbowEdgeStyle;elbow=vertical;entryX=0.5;entryY=1;entryDx=0;entryDy=0;" parent="WIyWlLk6GJQsqaUBKTNV-1" edge="1">
          <mxGeometry width="160" relative="1" as="geometry">
            <mxPoint x="680" y="1780" as="sourcePoint" />
            <mxPoint x="423" y="1719" as="targetPoint" />
            <Array as="points">
              <mxPoint x="550" y="1759" />
            </Array>
          </mxGeometry>
        </mxCell>
        <mxCell id="qJBdiUId8fytjKBIonkx-15" value="" style="endArrow=block;endSize=10;endFill=0;shadow=0;strokeWidth=1;rounded=0;curved=0;edgeStyle=elbowEdgeStyle;elbow=vertical;entryX=0.5;entryY=1;entryDx=0;entryDy=0;" parent="WIyWlLk6GJQsqaUBKTNV-1" edge="1">
          <mxGeometry width="160" relative="1" as="geometry">
            <mxPoint x="180" y="1780" as="sourcePoint" />
            <mxPoint x="423" y="1719" as="targetPoint" />
            <Array as="points">
              <mxPoint x="360" y="1759" />
            </Array>
          </mxGeometry>
        </mxCell>
        <mxCell id="qJBdiUId8fytjKBIonkx-16" value="" style="endArrow=block;endSize=10;endFill=0;shadow=0;strokeWidth=1;rounded=0;curved=0;edgeStyle=elbowEdgeStyle;elbow=vertical;entryX=0.5;entryY=1;entryDx=0;entryDy=0;" parent="WIyWlLk6GJQsqaUBKTNV-1" edge="1">
          <mxGeometry width="160" relative="1" as="geometry">
            <mxPoint x="423" y="1780" as="sourcePoint" />
            <mxPoint x="423" y="1719" as="targetPoint" />
            <Array as="points">
              <mxPoint x="370" y="1769" />
            </Array>
          </mxGeometry>
        </mxCell>
        <mxCell id="qJBdiUId8fytjKBIonkx-17" value="[*]" style="text;html=1;align=center;verticalAlign=middle;resizable=0;points=[];autosize=1;strokeColor=none;fillColor=none;" parent="WIyWlLk6GJQsqaUBKTNV-1" vertex="1">
          <mxGeometry x="391" y="1564" width="30" height="30" as="geometry" />
        </mxCell>
        <mxCell id="qJBdiUId8fytjKBIonkx-18" value="1" style="endArrow=open;html=1;endSize=12;startArrow=diamondThin;startSize=14;startFill=1;edgeStyle=orthogonalEdgeStyle;align=left;verticalAlign=bottom;rounded=0;exitX=0.494;exitY=0.008;exitDx=0;exitDy=0;entryX=0.96;entryY=0.206;entryDx=0;entryDy=0;exitPerimeter=0;entryPerimeter=0;" parent="WIyWlLk6GJQsqaUBKTNV-1" source="HoljnPIvToN0olSSxeQU-4" target="qJBdiUId8fytjKBIonkx-17" edge="1">
          <mxGeometry x="-0.981" y="21" relative="1" as="geometry">
            <mxPoint x="422.9599999999999" y="1640.6399999999999" as="sourcePoint" />
            <mxPoint x="422.1199999999999" y="1570.96" as="targetPoint" />
            <mxPoint as="offset" />
          </mxGeometry>
        </mxCell>
        <mxCell id="qJBdiUId8fytjKBIonkx-19" value="" style="endArrow=block;startArrow=block;endFill=1;startFill=1;html=1;rounded=0;exitX=0.5;exitY=1;exitDx=0;exitDy=0;entryX=0.484;entryY=-0.001;entryDx=0;entryDy=0;entryPerimeter=0;" parent="WIyWlLk6GJQsqaUBKTNV-1" target="kHMZLF0wuuY4l7XT_qzu-5" edge="1">
          <mxGeometry width="160" relative="1" as="geometry">
            <mxPoint x="420.05" y="1966" as="sourcePoint" />
            <mxPoint x="420" y="2016" as="targetPoint" />
          </mxGeometry>
        </mxCell>
        <mxCell id="qJBdiUId8fytjKBIonkx-20" value="" style="endArrow=open;endFill=1;endSize=12;html=1;rounded=0;exitX=0.5;exitY=1;exitDx=0;exitDy=0;entryX=1;entryY=0;entryDx=0;entryDy=0;" parent="WIyWlLk6GJQsqaUBKTNV-1" target="kHMZLF0wuuY4l7XT_qzu-1" edge="1">
          <mxGeometry width="160" relative="1" as="geometry">
            <mxPoint x="675" y="1850" as="sourcePoint" />
            <mxPoint x="533" y="1895" as="targetPoint" />
          </mxGeometry>
        </mxCell>
        <mxCell id="qJBdiUId8fytjKBIonkx-21" value="" style="endArrow=open;endFill=1;endSize=12;html=1;rounded=0;exitX=0.5;exitY=1;exitDx=0;exitDy=0;entryX=0.485;entryY=-0.003;entryDx=0;entryDy=0;entryPerimeter=0;" parent="WIyWlLk6GJQsqaUBKTNV-1" target="kHMZLF0wuuY4l7XT_qzu-1" edge="1">
          <mxGeometry width="160" relative="1" as="geometry">
            <mxPoint x="420.39" y="1850" as="sourcePoint" />
            <mxPoint x="420.39" y="1895" as="targetPoint" />
          </mxGeometry>
        </mxCell>
        <mxCell id="qJBdiUId8fytjKBIonkx-22" value="" style="endArrow=open;endFill=1;endSize=12;html=1;rounded=0;exitX=0.5;exitY=1;exitDx=0;exitDy=0;entryX=0;entryY=0;entryDx=0;entryDy=0;" parent="WIyWlLk6GJQsqaUBKTNV-1" target="kHMZLF0wuuY4l7XT_qzu-1" edge="1">
          <mxGeometry width="160" relative="1" as="geometry">
            <mxPoint x="175" y="1850" as="sourcePoint" />
            <mxPoint x="313" y="1895" as="targetPoint" />
          </mxGeometry>
        </mxCell>
        <mxCell id="qJBdiUId8fytjKBIonkx-23" value="&lt;p style=&quot;margin:0px;margin-top:4px;text-align:center;&quot;&gt;&lt;b&gt;TrainHallMutations&lt;/b&gt;&lt;/p&gt;&lt;hr size=&quot;1&quot; style=&quot;border-style:solid;&quot;&gt;&lt;p style=&quot;margin:0px;margin-left:4px;&quot;&gt;&lt;/p&gt;&lt;p style=&quot;margin:0px;margin-left:4px;&quot;&gt;+ create_train_hall(hall_name, ...): TrainHallType&lt;/p&gt;&lt;p style=&quot;margin:0px;margin-left:4px;&quot;&gt;+ update_train_hall(&lt;span style=&quot;background-color: initial;&quot;&gt;hall_name, ...&lt;/span&gt;&lt;span style=&quot;background-color: initial;&quot;&gt;):&amp;nbsp;&lt;/span&gt;&lt;span style=&quot;background-color: initial;&quot;&gt;TrainHallType&lt;/span&gt;&lt;/p&gt;&lt;p style=&quot;margin:0px;margin-left:4px;&quot;&gt;+ delete_train_hall(hall_id): String&lt;/p&gt;&lt;p style=&quot;margin:0px;margin-left:4px;&quot;&gt;+ undo_operation(): String&lt;/p&gt;&lt;p style=&quot;margin:0px;margin-left:4px;&quot;&gt;+ redo_operation(): String&lt;/p&gt;" style="verticalAlign=top;align=left;overflow=fill;html=1;whiteSpace=wrap;" parent="WIyWlLk6GJQsqaUBKTNV-1" vertex="1">
          <mxGeometry x="266" y="1260" width="310" height="120" as="geometry" />
        </mxCell>
        <mxCell id="qJBdiUId8fytjKBIonkx-24" value="&lt;p style=&quot;margin:0px;margin-top:4px;text-align:center;&quot;&gt;&lt;b&gt;TrainHallQueries&lt;/b&gt;&lt;br&gt;&lt;/p&gt;&lt;hr size=&quot;1&quot; style=&quot;border-style:solid;&quot;&gt;&lt;p style=&quot;margin: 0px 0px 0px 4px;&quot;&gt;-&amp;nbsp;&lt;span style=&quot;background-color: initial;&quot;&gt;all_train_halls: List&amp;lt;TrainHallType&amp;gt;&lt;/span&gt;&lt;/p&gt;&lt;p style=&quot;margin: 0px 0px 0px 4px;&quot;&gt;&lt;span style=&quot;background-color: initial;&quot;&gt;- train_hall_by_name:&amp;nbsp;&lt;/span&gt;&lt;span style=&quot;background-color: initial;&quot;&gt;TrainHallType&lt;/span&gt;&lt;/p&gt;&lt;hr size=&quot;1&quot; style=&quot;border-style:solid;&quot;&gt;&lt;p style=&quot;margin:0px;margin-left:4px;&quot;&gt;+ resolved_all_train_halls(**kwargs):&amp;nbsp;&lt;span style=&quot;background-color: initial;&quot;&gt;all_train_halls&lt;/span&gt;&lt;/p&gt;&lt;p style=&quot;margin:0px;margin-left:4px;&quot;&gt;+ resolved_train_hall_by_name(station_name): TrainHallType&amp;nbsp;&lt;/p&gt;" style="verticalAlign=top;align=left;overflow=fill;html=1;whiteSpace=wrap;" parent="WIyWlLk6GJQsqaUBKTNV-1" vertex="1">
          <mxGeometry x="470" y="2140" width="340" height="110" as="geometry" />
        </mxCell>
        <mxCell id="qJBdiUId8fytjKBIonkx-25" value="" style="endArrow=open;endFill=1;endSize=12;html=1;rounded=0;entryX=0.993;entryY=0.578;entryDx=0;entryDy=0;exitX=0.5;exitY=0;exitDx=0;exitDy=0;exitPerimeter=0;entryPerimeter=0;" parent="WIyWlLk6GJQsqaUBKTNV-1" source="qJBdiUId8fytjKBIonkx-24" target="kHMZLF0wuuY4l7XT_qzu-1" edge="1">
          <mxGeometry width="160" relative="1" as="geometry">
            <mxPoint x="642" y="2140" as="sourcePoint" />
            <mxPoint x="527" y="1981" as="targetPoint" />
            <Array as="points">
              <mxPoint x="640" y="1940" />
            </Array>
          </mxGeometry>
        </mxCell>
        <mxCell id="qJBdiUId8fytjKBIonkx-26" value="" style="endArrow=open;endFill=1;endSize=12;html=1;rounded=0;exitX=-0.002;exitY=0.469;exitDx=0;exitDy=0;exitPerimeter=0;" parent="WIyWlLk6GJQsqaUBKTNV-1" source="qJBdiUId8fytjKBIonkx-23" edge="1">
          <mxGeometry width="160" relative="1" as="geometry">
            <mxPoint x="259" y="1316" as="sourcePoint" />
            <mxPoint x="318" y="1920" as="targetPoint" />
            <Array as="points">
              <mxPoint x="41" y="1316" />
              <mxPoint x="41" y="1756" />
              <mxPoint x="40" y="1920" />
              <mxPoint x="180" y="1920" />
            </Array>
          </mxGeometry>
        </mxCell>
        <mxCell id="qJBdiUId8fytjKBIonkx-27" value="Use" style="endArrow=open;endSize=12;dashed=1;html=1;rounded=0;exitX=0.518;exitY=1.011;exitDx=0;exitDy=0;entryX=0.506;entryY=-0.001;entryDx=0;entryDy=0;exitPerimeter=0;entryPerimeter=0;" parent="WIyWlLk6GJQsqaUBKTNV-1" target="HoljnPIvToN0olSSxeQU-0" edge="1">
          <mxGeometry width="160" relative="1" as="geometry">
            <mxPoint x="422.5" y="1380" as="sourcePoint" />
            <mxPoint x="423.5" y="1439" as="targetPoint" />
          </mxGeometry>
        </mxCell>
        <mxCell id="qJBdiUId8fytjKBIonkx-28" value="" style="endArrow=block;endSize=10;endFill=0;shadow=0;strokeWidth=1;rounded=0;curved=0;edgeStyle=elbowEdgeStyle;elbow=vertical;entryX=0.5;entryY=1;entryDx=0;entryDy=0;" parent="WIyWlLk6GJQsqaUBKTNV-1" edge="1">
          <mxGeometry width="160" relative="1" as="geometry">
            <mxPoint x="1535" y="1781" as="sourcePoint" />
            <mxPoint x="1278" y="1720" as="targetPoint" />
            <Array as="points">
              <mxPoint x="1405" y="1760" />
            </Array>
          </mxGeometry>
        </mxCell>
        <mxCell id="qJBdiUId8fytjKBIonkx-29" value="" style="endArrow=block;endSize=10;endFill=0;shadow=0;strokeWidth=1;rounded=0;curved=0;edgeStyle=elbowEdgeStyle;elbow=vertical;entryX=0.5;entryY=1;entryDx=0;entryDy=0;" parent="WIyWlLk6GJQsqaUBKTNV-1" edge="1">
          <mxGeometry width="160" relative="1" as="geometry">
            <mxPoint x="1278" y="1781" as="sourcePoint" />
            <mxPoint x="1278" y="1720" as="targetPoint" />
            <Array as="points">
              <mxPoint x="1225" y="1770" />
            </Array>
          </mxGeometry>
        </mxCell>
        <mxCell id="qJBdiUId8fytjKBIonkx-30" value="" style="endArrow=block;endSize=10;endFill=0;shadow=0;strokeWidth=1;rounded=0;curved=0;edgeStyle=elbowEdgeStyle;elbow=vertical;entryX=0.5;entryY=1;entryDx=0;entryDy=0;" parent="WIyWlLk6GJQsqaUBKTNV-1" edge="1">
          <mxGeometry width="160" relative="1" as="geometry">
            <mxPoint x="1035" y="1781" as="sourcePoint" />
            <mxPoint x="1278" y="1720" as="targetPoint" />
            <Array as="points">
              <mxPoint x="1215" y="1760" />
            </Array>
          </mxGeometry>
        </mxCell>
        <mxCell id="qJBdiUId8fytjKBIonkx-31" value="" style="endArrow=open;endFill=1;endSize=12;html=1;rounded=0;exitX=0.5;exitY=1;exitDx=0;exitDy=0;entryX=1;entryY=0;entryDx=0;entryDy=0;entryPerimeter=0;" parent="WIyWlLk6GJQsqaUBKTNV-1" target="kHMZLF0wuuY4l7XT_qzu-2" edge="1">
          <mxGeometry width="160" relative="1" as="geometry">
            <mxPoint x="1537" y="1850" as="sourcePoint" />
            <mxPoint x="1390" y="1906" as="targetPoint" />
          </mxGeometry>
        </mxCell>
        <mxCell id="qJBdiUId8fytjKBIonkx-32" value="" style="endArrow=open;endFill=1;endSize=12;html=1;rounded=0;exitX=0.5;exitY=1;exitDx=0;exitDy=0;" parent="WIyWlLk6GJQsqaUBKTNV-1" edge="1">
          <mxGeometry width="160" relative="1" as="geometry">
            <mxPoint x="1280.0299999999997" y="1850" as="sourcePoint" />
            <mxPoint x="1280" y="1900" as="targetPoint" />
          </mxGeometry>
        </mxCell>
        <mxCell id="qJBdiUId8fytjKBIonkx-33" value="" style="endArrow=open;endFill=1;endSize=12;html=1;rounded=0;exitX=0.5;exitY=1;exitDx=0;exitDy=0;entryX=0;entryY=0;entryDx=0;entryDy=0;" parent="WIyWlLk6GJQsqaUBKTNV-1" target="kHMZLF0wuuY4l7XT_qzu-2" edge="1">
          <mxGeometry width="160" relative="1" as="geometry">
            <mxPoint x="1010" y="1850" as="sourcePoint" />
            <mxPoint x="1153" y="1906" as="targetPoint" />
          </mxGeometry>
        </mxCell>
        <mxCell id="qJBdiUId8fytjKBIonkx-34" value="" style="endArrow=block;startArrow=block;endFill=1;startFill=1;html=1;rounded=0;exitX=0.5;exitY=1;exitDx=0;exitDy=0;" parent="WIyWlLk6GJQsqaUBKTNV-1" edge="1">
          <mxGeometry width="160" relative="1" as="geometry">
            <mxPoint x="1284.8999999999999" y="1960" as="sourcePoint" />
            <mxPoint x="1285" y="2010" as="targetPoint" />
          </mxGeometry>
        </mxCell>
        <mxCell id="qJBdiUId8fytjKBIonkx-35" value="&lt;p style=&quot;margin:0px;margin-top:4px;text-align:center;&quot;&gt;&lt;b&gt;TrainMutations&lt;/b&gt;&lt;/p&gt;&lt;hr size=&quot;1&quot; style=&quot;border-style:solid;&quot;&gt;&lt;p style=&quot;margin:0px;margin-left:4px;&quot;&gt;&lt;/p&gt;&lt;p style=&quot;margin:0px;margin-left:4px;&quot;&gt;+ create_train(train_number, base_price, ...): TrainType&lt;/p&gt;&lt;p style=&quot;margin:0px;margin-left:4px;&quot;&gt;+ update_train(&lt;span style=&quot;background-color: initial;&quot;&gt;train_&lt;/span&gt;number&lt;span style=&quot;background-color: initial;&quot;&gt;,&amp;nbsp;&lt;/span&gt;base_price, ...&lt;span style=&quot;background-color: initial;&quot;&gt;):&amp;nbsp;&lt;/span&gt;&lt;span style=&quot;background-color: initial;&quot;&gt;TrainType&lt;/span&gt;&lt;/p&gt;&lt;p style=&quot;margin:0px;margin-left:4px;&quot;&gt;+ delete_train(train_id): String&lt;/p&gt;&lt;p style=&quot;margin:0px;margin-left:4px;&quot;&gt;+ undo_operation(): String&lt;/p&gt;&lt;p style=&quot;margin:0px;margin-left:4px;&quot;&gt;+ redo_operation(): String&lt;/p&gt;" style="verticalAlign=top;align=left;overflow=fill;html=1;whiteSpace=wrap;" parent="WIyWlLk6GJQsqaUBKTNV-1" vertex="1">
          <mxGeometry x="1125" y="1240" width="310" height="120" as="geometry" />
        </mxCell>
        <mxCell id="qJBdiUId8fytjKBIonkx-36" value="Use" style="endArrow=open;endSize=12;dashed=1;html=1;rounded=0;exitX=0.518;exitY=1.011;exitDx=0;exitDy=0;entryX=0.525;entryY=-0.002;entryDx=0;entryDy=0;exitPerimeter=0;entryPerimeter=0;" parent="WIyWlLk6GJQsqaUBKTNV-1" target="HoljnPIvToN0olSSxeQU-3" edge="1">
          <mxGeometry width="160" relative="1" as="geometry">
            <mxPoint x="1278.5" y="1360" as="sourcePoint" />
            <mxPoint x="1277" y="1430" as="targetPoint" />
          </mxGeometry>
        </mxCell>
        <mxCell id="qJBdiUId8fytjKBIonkx-37" value="1" style="endArrow=open;html=1;endSize=12;startArrow=diamondThin;startSize=14;startFill=1;edgeStyle=orthogonalEdgeStyle;align=left;verticalAlign=bottom;rounded=0;exitX=0.48;exitY=-0.015;exitDx=0;exitDy=0;entryX=0.954;entryY=0.183;entryDx=0;entryDy=0;exitPerimeter=0;entryPerimeter=0;" parent="WIyWlLk6GJQsqaUBKTNV-1" source="HoljnPIvToN0olSSxeQU-6" target="qJBdiUId8fytjKBIonkx-38" edge="1">
          <mxGeometry x="-1" y="16" relative="1" as="geometry">
            <mxPoint x="1277" y="1637" as="sourcePoint" />
            <mxPoint x="1278.12" y="1566.96" as="targetPoint" />
            <mxPoint y="1" as="offset" />
          </mxGeometry>
        </mxCell>
        <mxCell id="qJBdiUId8fytjKBIonkx-38" value="[*]" style="text;html=1;align=center;verticalAlign=middle;resizable=0;points=[];autosize=1;strokeColor=none;fillColor=none;" parent="WIyWlLk6GJQsqaUBKTNV-1" vertex="1">
          <mxGeometry x="1247" y="1559" width="30" height="30" as="geometry" />
        </mxCell>
        <mxCell id="qJBdiUId8fytjKBIonkx-39" value="&lt;p style=&quot;margin:0px;margin-top:4px;text-align:center;&quot;&gt;&lt;b&gt;TrainQueries&lt;/b&gt;&lt;br&gt;&lt;/p&gt;&lt;hr size=&quot;1&quot; style=&quot;border-style:solid;&quot;&gt;&lt;p style=&quot;margin: 0px 0px 0px 4px;&quot;&gt;-&amp;nbsp;&lt;span style=&quot;background-color: initial;&quot;&gt;all_trains: List&amp;lt;TrainType&amp;gt;&lt;/span&gt;&lt;/p&gt;&lt;p style=&quot;margin: 0px 0px 0px 4px;&quot;&gt;&lt;span style=&quot;background-color: initial;&quot;&gt;- train_by_number:&amp;nbsp;&lt;/span&gt;&lt;span style=&quot;background-color: initial;&quot;&gt;TrainType&lt;/span&gt;&lt;/p&gt;&lt;hr size=&quot;1&quot; style=&quot;border-style:solid;&quot;&gt;&lt;p style=&quot;margin:0px;margin-left:4px;&quot;&gt;+ resolved_all_trains(**kwargs):&amp;nbsp;&lt;span style=&quot;background-color: initial;&quot;&gt;all_trains&lt;/span&gt;&lt;/p&gt;&lt;p style=&quot;margin:0px;margin-left:4px;&quot;&gt;+ resolved_train_by_number(train_number): TrainType&amp;nbsp;&lt;/p&gt;" style="verticalAlign=top;align=left;overflow=fill;html=1;whiteSpace=wrap;" parent="WIyWlLk6GJQsqaUBKTNV-1" vertex="1">
          <mxGeometry x="850" y="2210" width="300" height="110" as="geometry" />
        </mxCell>
        <mxCell id="qJBdiUId8fytjKBIonkx-40" value="" style="endArrow=open;endFill=1;endSize=12;html=1;rounded=0;exitX=-0.004;exitY=0.67;exitDx=0;exitDy=0;exitPerimeter=0;entryX=-0.001;entryY=0.344;entryDx=0;entryDy=0;entryPerimeter=0;" parent="WIyWlLk6GJQsqaUBKTNV-1" source="qJBdiUId8fytjKBIonkx-35" target="kHMZLF0wuuY4l7XT_qzu-2" edge="1">
          <mxGeometry width="160" relative="1" as="geometry">
            <mxPoint x="1120" y="1320" as="sourcePoint" />
            <mxPoint x="1180" y="1924" as="targetPoint" />
            <Array as="points">
              <mxPoint x="880" y="1320" />
              <mxPoint x="880" y="1920" />
            </Array>
          </mxGeometry>
        </mxCell>
        <mxCell id="qJBdiUId8fytjKBIonkx-41" value="" style="endArrow=open;endFill=1;endSize=12;html=1;rounded=0;exitX=0.5;exitY=0;exitDx=0;exitDy=0;entryX=-0.002;entryY=0.683;entryDx=0;entryDy=0;entryPerimeter=0;" parent="WIyWlLk6GJQsqaUBKTNV-1" source="qJBdiUId8fytjKBIonkx-39" target="kHMZLF0wuuY4l7XT_qzu-2" edge="1">
          <mxGeometry width="160" relative="1" as="geometry">
            <mxPoint x="955" y="2090" as="sourcePoint" />
            <mxPoint x="1000" y="1940" as="targetPoint" />
            <Array as="points">
              <mxPoint x="1000" y="1941" />
            </Array>
          </mxGeometry>
        </mxCell>
        <mxCell id="qJBdiUId8fytjKBIonkx-42" value="&lt;p style=&quot;margin:0px;margin-top:4px;text-align:center;&quot;&gt;&lt;i&gt;&amp;lt;&amp;lt;Enumeration&amp;gt;&amp;gt;&lt;/i&gt;&lt;br&gt;&lt;b&gt;TRAIN_TYPES&lt;/b&gt;&lt;/p&gt;&lt;hr size=&quot;1&quot; style=&quot;border-style:solid;&quot;&gt;&lt;p style=&quot;margin:0px;margin-left:4px;&quot;&gt;4_coupe&lt;br&gt;bus&lt;/p&gt;&lt;p style=&quot;margin:0px;margin-left:4px;&quot;&gt;6_coupe&lt;/p&gt;" style="verticalAlign=top;align=left;overflow=fill;html=1;whiteSpace=wrap;" parent="WIyWlLk6GJQsqaUBKTNV-1" vertex="1">
          <mxGeometry x="850" y="2010" width="105" height="100" as="geometry" />
        </mxCell>
        <mxCell id="7R2H9vkqGxsabLLhFxLl-1" value="&lt;p style=&quot;margin:0px;margin-top:4px;text-align:center;&quot;&gt;&lt;b&gt;TrainDocument&lt;/b&gt;&lt;/p&gt;&lt;hr size=&quot;1&quot; style=&quot;border-style:solid;&quot;&gt;&lt;p style=&quot;margin:0px;margin-left:4px;&quot;&gt;+ departure_station: ObjectField&lt;/p&gt;&lt;p style=&quot;margin:0px;margin-left:4px;&quot;&gt;&lt;span style=&quot;background-color: initial;&quot;&gt;+&amp;nbsp;&lt;/span&gt;&lt;span style=&quot;background-color: initial;&quot;&gt;arrival_station: ObjectField&lt;/span&gt;&lt;/p&gt;&lt;p style=&quot;margin:0px;margin-left:4px;&quot;&gt;&lt;span style=&quot;background-color: initial;&quot;&gt;+ railway_company:&amp;nbsp;&lt;/span&gt;&lt;span style=&quot;background-color: initial;&quot;&gt;ObjectField&lt;/span&gt;&lt;/p&gt;&lt;p style=&quot;margin:0px;margin-left:4px;&quot;&gt;&lt;span style=&quot;background-color: initial;&quot;&gt;+ hall:&amp;nbsp;&lt;/span&gt;&lt;span style=&quot;background-color: initial;&quot;&gt;ObjectField&lt;/span&gt;&lt;/p&gt;&lt;p style=&quot;margin:0px;margin-left:4px;&quot;&gt;&lt;span style=&quot;background-color: initial;&quot;&gt;+ model: Train&lt;/span&gt;&lt;/p&gt;&lt;p style=&quot;margin:0px;margin-left:4px;&quot;&gt;&lt;span style=&quot;background-color: initial;&quot;&gt;+ fields: List&amp;lt;train_number, ...&amp;gt;&lt;/span&gt;&lt;/p&gt;&lt;p style=&quot;margin:0px;margin-left:4px;&quot;&gt;&lt;span style=&quot;background-color: initial;&quot;&gt;+ related_models: List&amp;lt;Station, ...&amp;gt;&lt;/span&gt;&lt;/p&gt;" style="verticalAlign=top;align=left;overflow=fill;html=1;whiteSpace=wrap;" vertex="1" parent="WIyWlLk6GJQsqaUBKTNV-1">
          <mxGeometry x="1400" y="2080" width="250" height="140" as="geometry" />
        </mxCell>
        <mxCell id="7R2H9vkqGxsabLLhFxLl-2" value="&lt;p style=&quot;margin:0px;margin-top:4px;text-align:center;&quot;&gt;&lt;b&gt;TrainSignalHandler&lt;/b&gt;&lt;/p&gt;&lt;hr size=&quot;1&quot; style=&quot;border-style:solid;&quot;&gt;&lt;p style=&quot;margin:0px;margin-left:4px;&quot;&gt;+ update_train_elasticsearch(**kwargs): void&lt;/p&gt;&lt;p style=&quot;margin:0px;margin-left:4px;&quot;&gt;+&amp;nbsp;&lt;span style=&quot;background-color: initial;&quot;&gt;delete_train_elasticsearch(**kwargs): void&lt;/span&gt;&lt;span style=&quot;background-color: initial;&quot;&gt;&amp;nbsp;&lt;/span&gt;&lt;/p&gt;" style="verticalAlign=top;align=left;overflow=fill;html=1;whiteSpace=wrap;" vertex="1" parent="WIyWlLk6GJQsqaUBKTNV-1">
          <mxGeometry x="1400" y="1930" width="250" height="70" as="geometry" />
        </mxCell>
        <mxCell id="7R2H9vkqGxsabLLhFxLl-3" value="" style="endArrow=open;endFill=1;endSize=12;html=1;rounded=0;exitX=0.558;exitY=1.007;exitDx=0;exitDy=0;entryX=0.992;entryY=0.963;entryDx=0;entryDy=0;entryPerimeter=0;exitPerimeter=0;" edge="1" parent="WIyWlLk6GJQsqaUBKTNV-1" source="7R2H9vkqGxsabLLhFxLl-1" target="kHMZLF0wuuY4l7XT_qzu-7">
          <mxGeometry width="160" relative="1" as="geometry">
            <mxPoint x="1537" y="2220" as="sourcePoint" />
            <mxPoint x="1390" y="2270" as="targetPoint" />
            <Array as="points">
              <mxPoint x="1540" y="2280" />
            </Array>
          </mxGeometry>
        </mxCell>
        <mxCell id="7R2H9vkqGxsabLLhFxLl-4" value="Use" style="endArrow=open;endSize=12;dashed=1;html=1;rounded=0;exitX=0.518;exitY=1.011;exitDx=0;exitDy=0;entryX=0.5;entryY=0;entryDx=0;entryDy=0;exitPerimeter=0;" edge="1" parent="WIyWlLk6GJQsqaUBKTNV-1" target="7R2H9vkqGxsabLLhFxLl-1">
          <mxGeometry width="160" relative="1" as="geometry">
            <mxPoint x="1524.25" y="2000" as="sourcePoint" />
            <mxPoint x="1525.75" y="2084" as="targetPoint" />
          </mxGeometry>
        </mxCell>
        <mxCell id="7R2H9vkqGxsabLLhFxLl-5" value="1" style="text;html=1;align=center;verticalAlign=middle;resizable=0;points=[];autosize=1;strokeColor=none;fillColor=none;" vertex="1" parent="WIyWlLk6GJQsqaUBKTNV-1">
          <mxGeometry x="1540" y="2220" width="30" height="30" as="geometry" />
        </mxCell>
        <mxCell id="7R2H9vkqGxsabLLhFxLl-6" value="[*]" style="text;html=1;align=center;verticalAlign=middle;resizable=0;points=[];autosize=1;strokeColor=none;fillColor=none;" vertex="1" parent="WIyWlLk6GJQsqaUBKTNV-1">
          <mxGeometry x="1400" y="2250" width="30" height="30" as="geometry" />
        </mxCell>
        <mxCell id="7R2H9vkqGxsabLLhFxLl-7" value="&lt;p style=&quot;margin:0px;margin-top:4px;text-align:center;&quot;&gt;&lt;b&gt;TrainHallSignalHandler&lt;/b&gt;&lt;/p&gt;&lt;hr size=&quot;1&quot; style=&quot;border-style:solid;&quot;&gt;&lt;p style=&quot;margin:0px;margin-left:4px;&quot;&gt;+ update_train_hall_elasticsearch(**kwargs): void&lt;/p&gt;&lt;p style=&quot;margin:0px;margin-left:4px;&quot;&gt;+&amp;nbsp;&lt;span style=&quot;background-color: initial;&quot;&gt;delete_train&lt;/span&gt;&lt;span style=&quot;background-color: initial;&quot;&gt;_hall&lt;/span&gt;&lt;span style=&quot;background-color: initial;&quot;&gt;_elasticsearch(**kwargs): void&lt;/span&gt;&lt;span style=&quot;background-color: initial;&quot;&gt;&amp;nbsp;&lt;/span&gt;&lt;/p&gt;" style="verticalAlign=top;align=left;overflow=fill;html=1;whiteSpace=wrap;" vertex="1" parent="WIyWlLk6GJQsqaUBKTNV-1">
          <mxGeometry x="20" y="2180" width="280" height="70" as="geometry" />
        </mxCell>
        <mxCell id="7R2H9vkqGxsabLLhFxLl-8" value="&lt;p style=&quot;margin:0px;margin-top:4px;text-align:center;&quot;&gt;&lt;b&gt;TrainHallDocument&lt;/b&gt;&lt;/p&gt;&lt;hr size=&quot;1&quot; style=&quot;border-style:solid;&quot;&gt;&lt;p style=&quot;margin:0px;margin-left:4px;&quot;&gt;&lt;span style=&quot;background-color: initial;&quot;&gt;+ model: TrainHall&lt;/span&gt;&lt;br&gt;&lt;/p&gt;&lt;p style=&quot;margin:0px;margin-left:4px;&quot;&gt;&lt;span style=&quot;background-color: initial;&quot;&gt;+ fields: List&amp;lt;train_number, ...&amp;gt;&lt;/span&gt;&lt;/p&gt;" style="verticalAlign=top;align=left;overflow=fill;html=1;whiteSpace=wrap;" vertex="1" parent="WIyWlLk6GJQsqaUBKTNV-1">
          <mxGeometry x="20" y="2031" width="250" height="70" as="geometry" />
        </mxCell>
        <mxCell id="7R2H9vkqGxsabLLhFxLl-9" value="Use" style="endArrow=open;endSize=12;dashed=1;html=1;rounded=0;exitX=0.5;exitY=0;exitDx=0;exitDy=0;entryX=0.558;entryY=1.002;entryDx=0;entryDy=0;entryPerimeter=0;" edge="1" parent="WIyWlLk6GJQsqaUBKTNV-1" source="7R2H9vkqGxsabLLhFxLl-7" target="7R2H9vkqGxsabLLhFxLl-8">
          <mxGeometry width="160" relative="1" as="geometry">
            <mxPoint x="130" y="2140" as="sourcePoint" />
            <mxPoint x="290" y="2140" as="targetPoint" />
          </mxGeometry>
        </mxCell>
        <mxCell id="7R2H9vkqGxsabLLhFxLl-10" value="" style="endArrow=open;endFill=1;endSize=12;html=1;rounded=0;exitX=0.758;exitY=1.011;exitDx=0;exitDy=0;entryX=0.53;entryY=1.004;entryDx=0;entryDy=0;entryPerimeter=0;exitPerimeter=0;" edge="1" parent="WIyWlLk6GJQsqaUBKTNV-1" source="7R2H9vkqGxsabLLhFxLl-8" target="kHMZLF0wuuY4l7XT_qzu-5">
          <mxGeometry width="160" relative="1" as="geometry">
            <mxPoint x="190" y="2149.77" as="sourcePoint" />
            <mxPoint x="350" y="2149.77" as="targetPoint" />
            <Array as="points">
              <mxPoint x="210" y="2160" />
              <mxPoint x="430" y="2160" />
            </Array>
          </mxGeometry>
        </mxCell>
        <mxCell id="7R2H9vkqGxsabLLhFxLl-11" value="1" style="text;html=1;align=center;verticalAlign=middle;resizable=0;points=[];autosize=1;strokeColor=none;fillColor=none;" vertex="1" parent="WIyWlLk6GJQsqaUBKTNV-1">
          <mxGeometry x="210" y="2101" width="30" height="30" as="geometry" />
        </mxCell>
        <mxCell id="7R2H9vkqGxsabLLhFxLl-12" value="[*]" style="text;html=1;align=center;verticalAlign=middle;resizable=0;points=[];autosize=1;strokeColor=none;fillColor=none;" vertex="1" parent="WIyWlLk6GJQsqaUBKTNV-1">
          <mxGeometry x="391" y="2110" width="30" height="30" as="geometry" />
        </mxCell>
        <mxCell id="7R2H9vkqGxsabLLhFxLl-13" value="&lt;p style=&quot;margin:0px;margin-top:4px;text-align:center;&quot;&gt;&lt;b&gt;StationSignalHandler&lt;/b&gt;&lt;/p&gt;&lt;hr size=&quot;1&quot; style=&quot;border-style:solid;&quot;&gt;&lt;p style=&quot;margin:0px;margin-left:4px;&quot;&gt;+ update_station_elasticsearch(**kwargs): void&lt;/p&gt;&lt;p style=&quot;margin:0px;margin-left:4px;&quot;&gt;+&amp;nbsp;&lt;span style=&quot;background-color: initial;&quot;&gt;delete_&lt;/span&gt;station&lt;span style=&quot;background-color: initial;&quot;&gt;_elasticsearch(**kwargs): void&lt;/span&gt;&lt;span style=&quot;background-color: initial;&quot;&gt;&amp;nbsp;&lt;/span&gt;&lt;/p&gt;" style="verticalAlign=top;align=left;overflow=fill;html=1;whiteSpace=wrap;" vertex="1" parent="WIyWlLk6GJQsqaUBKTNV-1">
          <mxGeometry x="33" y="1024" width="280" height="70" as="geometry" />
        </mxCell>
        <mxCell id="7R2H9vkqGxsabLLhFxLl-14" value="&lt;p style=&quot;margin:0px;margin-top:4px;text-align:center;&quot;&gt;&lt;b&gt;StationDocument&lt;/b&gt;&lt;/p&gt;&lt;hr size=&quot;1&quot; style=&quot;border-style:solid;&quot;&gt;&lt;p style=&quot;margin:0px;margin-left:4px;&quot;&gt;&lt;span style=&quot;background-color: initial;&quot;&gt;+ model: Station&lt;/span&gt;&lt;br&gt;&lt;/p&gt;&lt;p style=&quot;margin:0px;margin-left:4px;&quot;&gt;&lt;span style=&quot;background-color: initial;&quot;&gt;+ fields: List&amp;lt;station_name, ...&amp;gt;&lt;/span&gt;&lt;/p&gt;" style="verticalAlign=top;align=left;overflow=fill;html=1;whiteSpace=wrap;" vertex="1" parent="WIyWlLk6GJQsqaUBKTNV-1">
          <mxGeometry x="33" y="875" width="250" height="70" as="geometry" />
        </mxCell>
        <mxCell id="7R2H9vkqGxsabLLhFxLl-15" value="Use" style="endArrow=open;endSize=12;dashed=1;html=1;rounded=0;exitX=0.5;exitY=0;exitDx=0;exitDy=0;entryX=0.558;entryY=1.002;entryDx=0;entryDy=0;entryPerimeter=0;" edge="1" parent="WIyWlLk6GJQsqaUBKTNV-1">
          <mxGeometry width="160" relative="1" as="geometry">
            <mxPoint x="159.66" y="1024" as="sourcePoint" />
            <mxPoint x="159.66" y="945" as="targetPoint" />
          </mxGeometry>
        </mxCell>
        <mxCell id="7R2H9vkqGxsabLLhFxLl-16" value="" style="endArrow=open;endFill=1;endSize=12;html=1;rounded=0;exitX=0.758;exitY=1.011;exitDx=0;exitDy=0;entryX=0.58;entryY=1.008;entryDx=0;entryDy=0;entryPerimeter=0;exitPerimeter=0;" edge="1" parent="WIyWlLk6GJQsqaUBKTNV-1" target="kHMZLF0wuuY4l7XT_qzu-4">
          <mxGeometry width="160" relative="1" as="geometry">
            <mxPoint x="230" y="945" as="sourcePoint" />
            <mxPoint x="449" y="957" as="targetPoint" />
            <Array as="points">
              <mxPoint x="230" y="1000" />
              <mxPoint x="440" y="1000" />
              <mxPoint x="440" y="980" />
            </Array>
          </mxGeometry>
        </mxCell>
        <mxCell id="7R2H9vkqGxsabLLhFxLl-17" value="1" style="text;html=1;align=center;verticalAlign=middle;resizable=0;points=[];autosize=1;strokeColor=none;fillColor=none;" vertex="1" parent="WIyWlLk6GJQsqaUBKTNV-1">
          <mxGeometry x="230" y="945" width="30" height="30" as="geometry" />
        </mxCell>
        <mxCell id="7R2H9vkqGxsabLLhFxLl-18" value="[*]" style="text;html=1;align=center;verticalAlign=middle;resizable=0;points=[];autosize=1;strokeColor=none;fillColor=none;" vertex="1" parent="WIyWlLk6GJQsqaUBKTNV-1">
          <mxGeometry x="405" y="860" width="30" height="30" as="geometry" />
        </mxCell>
        <mxCell id="7R2H9vkqGxsabLLhFxLl-19" value="&lt;p style=&quot;margin:0px;margin-top:4px;text-align:center;&quot;&gt;&lt;b style=&quot;background-color: initial;&quot;&gt;RailwayCompany&lt;/b&gt;&lt;b&gt;Handler&lt;/b&gt;&lt;/p&gt;&lt;hr size=&quot;1&quot; style=&quot;border-style:solid;&quot;&gt;&lt;p style=&quot;margin:0px;margin-left:4px;&quot;&gt;+ update_railway_company_elasticsearch(**kwargs): void&lt;/p&gt;&lt;p style=&quot;margin:0px;margin-left:4px;&quot;&gt;+&amp;nbsp;&lt;span style=&quot;background-color: initial;&quot;&gt;delete_&lt;/span&gt;railway_company&lt;span style=&quot;background-color: initial;&quot;&gt;_elasticsearch(**kwargs): void&lt;/span&gt;&lt;span style=&quot;background-color: initial;&quot;&gt;&amp;nbsp;&lt;/span&gt;&lt;/p&gt;" style="verticalAlign=top;align=left;overflow=fill;html=1;whiteSpace=wrap;" vertex="1" parent="WIyWlLk6GJQsqaUBKTNV-1">
          <mxGeometry x="850" y="989" width="320" height="70" as="geometry" />
        </mxCell>
        <mxCell id="7R2H9vkqGxsabLLhFxLl-20" value="&lt;p style=&quot;margin:0px;margin-top:4px;text-align:center;&quot;&gt;&lt;b&gt;RailwayCompanyDocument&lt;/b&gt;&lt;/p&gt;&lt;hr size=&quot;1&quot; style=&quot;border-style:solid;&quot;&gt;&lt;p style=&quot;margin:0px;margin-left:4px;&quot;&gt;&lt;span style=&quot;background-color: initial;&quot;&gt;+ model: RailwayCompany&lt;/span&gt;&lt;br&gt;&lt;/p&gt;&lt;p style=&quot;margin:0px;margin-left:4px;&quot;&gt;&lt;span style=&quot;background-color: initial;&quot;&gt;+ fields: List&amp;lt;railway_name, ...&amp;gt;&lt;/span&gt;&lt;/p&gt;" style="verticalAlign=top;align=left;overflow=fill;html=1;whiteSpace=wrap;" vertex="1" parent="WIyWlLk6GJQsqaUBKTNV-1">
          <mxGeometry x="850" y="840" width="250" height="70" as="geometry" />
        </mxCell>
        <mxCell id="7R2H9vkqGxsabLLhFxLl-21" value="Use" style="endArrow=open;endSize=12;dashed=1;html=1;rounded=0;exitX=0.5;exitY=0;exitDx=0;exitDy=0;entryX=0.558;entryY=1.002;entryDx=0;entryDy=0;entryPerimeter=0;" edge="1" parent="WIyWlLk6GJQsqaUBKTNV-1">
          <mxGeometry width="160" relative="1" as="geometry">
            <mxPoint x="960" y="989" as="sourcePoint" />
            <mxPoint x="960" y="910" as="targetPoint" />
          </mxGeometry>
        </mxCell>
        <mxCell id="7R2H9vkqGxsabLLhFxLl-22" value="" style="endArrow=open;endFill=1;endSize=12;html=1;rounded=0;entryX=0.166;entryY=1;entryDx=0;entryDy=0;entryPerimeter=0;" edge="1" parent="WIyWlLk6GJQsqaUBKTNV-1" target="kHMZLF0wuuY4l7XT_qzu-6">
          <mxGeometry width="160" relative="1" as="geometry">
            <mxPoint x="990" y="910" as="sourcePoint" />
            <mxPoint x="1200" y="880" as="targetPoint" />
            <Array as="points">
              <mxPoint x="990" y="959" />
              <mxPoint x="1200" y="959" />
              <mxPoint x="1200" y="939" />
            </Array>
          </mxGeometry>
        </mxCell>
        <mxCell id="7R2H9vkqGxsabLLhFxLl-23" value="1" style="text;html=1;align=center;verticalAlign=middle;resizable=0;points=[];autosize=1;strokeColor=none;fillColor=none;" vertex="1" parent="WIyWlLk6GJQsqaUBKTNV-1">
          <mxGeometry x="985" y="910" width="30" height="30" as="geometry" />
        </mxCell>
        <mxCell id="7R2H9vkqGxsabLLhFxLl-24" value="[*]" style="text;html=1;align=center;verticalAlign=middle;resizable=0;points=[];autosize=1;strokeColor=none;fillColor=none;" vertex="1" parent="WIyWlLk6GJQsqaUBKTNV-1">
          <mxGeometry x="1165" y="875" width="30" height="30" as="geometry" />
        </mxCell>
      </root>
    </mxGraphModel>
  </diagram>
</mxfile>
